<?xml version="1.0" encoding="UTF-8"?>
<svg id="Capa_2" data-name="Capa 2" xmlns="http://www.w3.org/2000/svg" viewBox="0 0 231.46 229.77">
  <defs>
    <style>
      .cls-1 {
        fill: #58238c;
      }
    </style>
  </defs>
  <g id="Capa_1-2" data-name="Capa 1">
    <path class="cls-1" d="M221.69,105.85c14.49,6.9,9.44,20.63,6.29,32.93-2.85,11.13-9.35,32.74-19.84,38.57-5.75,3.19-13.82,3.04-19.25,5.42-2.13.93-7.85,6.79-10.44,8.69-5.64,4.13-11.9,7.41-18.08,10.66,1.34,6.55,1.9,13.04.56,19.67-.26,1.28-2.02,7.32-2.78,7.79-1.17.7-8.26-.63-10.1-1-10.06-2.01-19.55-6.25-27.12-13.16-1.83-1.67-1.67-3.45-4.8-3.76-.91-.09-5.8-.1-6.22.14-.29.17-3.36,4.05-4.37,4.94-9.57,8.4-23.36,12.4-35.93,12.99-4.59-9.5-3.93-19.55-1.65-29.56-7.16-3.09-13.7-7.88-19.81-12.67-1.35-1.06-3.98-4.16-5.32-4.75-4.55-2.03-12.95-2.36-18.38-4.78-10.52-4.7-16.98-25.14-19.83-35.55-1.67-6.1-5.43-19.76-4.45-25.52.81-4.77,6.11-8.89,9.96-11.3C9.11,58.21,43.84,14.68,89.45,3.27c67.4-16.86,131.89,33.62,132.24,102.58ZM187.35,43.01C160.01,11.14,113.94,1.69,75.73,19.26c-1.63.75-10.45,5.25-11.01,6.14-.87,1.38,4.01,11.31,3.81,13.81l-17.05,19.78c-.39,1.33,2.91,11.32,3.95,11.96,1.84,1.13,6.57.56,8.8.77,10.54,1.01,21.1,2.68,31.62,3.41l51.58-40.09,29.09,7.98h10.83ZM55.93,32.43c-.72-.65-7.68,5.87-8.57,6.79-7.21,7.38-14.6,18.16-18.71,27.62-1.19,2.74-3.44,6.89-2.38,9.6,3.63,9.22,13.9,19.11,18.98,27.85l.11,30.85c9.3,1.24,18.6,3.13,27.94,4.03,5.24.51,14.72,1.62,19.59.97,1.7-.23,3.24-1.27,5.08-1.47,8.48-.93,18.47.77,27.11-.08l22-38.43,28.54-25.89,1.15.18,25.21,21.65,9.04,2.79c-1.31-16.22-6.47-32.11-15.61-45.56l-20.84-.31-24.74-6.82-50.96,40.03c-11.4-1.04-22.74-2.87-34.13-3.95-3.44-.32-10.58.08-13.36-.74-5.95-1.76-10.45-18.95-11.57-24.67l16.89-19.43c.77-1.69-.86-3.25-.77-5.02ZM136.5,140.69c8.27-.89,16.64-1.11,24.92-2.02,10.23-1.12,21.08-2.78,31.08-5.18,3.32-.8,12.64-2.98,15.16-4.48.74-.44.78-.69,1.11-1.41.93-2.06,2.81-15.47,2.19-17.31-.47-1.4-11.53-3.21-13.71-4.42l-21.22-17.94-21.11,19.04c-5.96,11.32-12.88,22.19-18.41,33.7ZM35.29,132.63v-24.42c0-1.15-12.45-15.88-13.1-18.88l-1.5,7.81c-.43,8.51-.45,17.12,1.15,25.53.27,1.42.72,4.59,1.42,5.63,1.34,2.02,9.6,3.11,12.03,4.33ZM83.12,177.45v-24.92c0-.33,1.16-2.15,1.01-2.26-23.41-1.75-48.26-4.25-69.74-14.1-.91-.29,2.83,11.61,3.13,12.48,1.47,4.25,6.42,16.97,10.04,19.17,2.14,1.3,8.5,2.67,11.25,3.35,14.36,3.54,29.57,5.18,44.31,6.29ZM217.55,136.16c-22.48,9.73-47.26,12.37-71.52,14.32l-.48,27.46c11.66-1.12,23.3-2.13,34.84-4.18,5.05-.9,20.06-3.5,23.74-5.96,6.11-4.1,11.76-24.33,13.42-31.64ZM107.29,148.75c2.09,11.28,8.61,26.74,20.31,30.8,3.66,1.27,6.28,1.29,7.76-2.99,1.17-3.38,1.08-19.86-.27-23.13-.55-1.33-1.67-2.91-2.98-3.57-.36-.18-3.23-1.12-3.41-1.12h-21.4ZM111.82,181.48c-8.05-8.52-12.73-19.8-15.11-31.22-2.22,1.27-3.17,3.38-3.46,5.85-.44,3.67-.49,17.83.69,20.85.82,2.11,4.39,4.52,6.56,4.52h11.33ZM166.7,186.52l-13.09,1.25,2.76,4.78,10.33-6.03ZM108.3,191.55h-11.83c-1.06,0-4.43-2.43-5.77-2.78-4.23-1.11-4.82.66-6.97,3.63-4.96,6.82-8.87,17.65-6.32,25.88,14.67-2.32,28.16-11.29,30.89-26.73ZM151.09,218.23v-9.31c0-1.78-2.23-8.08-3.09-10-.7-1.56-5.47-9.58-6.48-10.14-2.91-1.62-6.81,2.76-9.31,2.76h-12.34c2.23,15.52,16.58,24.82,31.22,26.69Z"/>
  </g>
</svg>