<?xml version="1.0" encoding="UTF-8"?>
<svg id="Capa_2" data-name="Capa 2" xmlns="http://www.w3.org/2000/svg" viewBox="0 0 230.07 229.77">
  <defs>
    <style>
      .cls-1 {
        fill: #e46e27;
      }
    </style>
  </defs>
  <g id="Capa_1-2" data-name="Capa 1">
    <g>
      <path class="cls-1" d="M118.38,0c10.93,2.8,17.18,13.41,13.35,24.34-5.26,15-27.29,15.53-33.47.93-4.66-11.03,1.66-22.42,12.94-25.27h7.17ZM114.26,6.83c-14.4.78-13.36,22.52.71,22.27,14.72-.26,13.93-23.07-.71-22.27Z"/>
      <path class="cls-1" d="M0,117.04v-4.48c.98-1.21,1.72-2.14,3.11-2.94,5.51-3.14,18.39-8.99,24.38-11.05,3.6-1.23,7.69-.39,8.35,3.92.7,4.53.52,18.94.05,23.76-.35,3.58-2.67,5.63-6.31,5.4l-26.47-11.68-3.11-2.94ZM29.15,105.83l-19.73,9.19,19.73,8.75v-17.94Z"/>
      <path class="cls-1" d="M97.32,63.67c11.27-3.71,23.68-3.71,34.94,0,.08-.53.25-1.02.53-1.48,7.35-11.87,22.03-21.28,30.65-32.14,3.36-4.23,1.57-8.51-3.78-6.92-7.56,6.53-14.22,15.35-21.8,21.7-3.31,2.77-6.39,4.47-10.81,4.89-5.77.54-23.64.74-28.67-.81-3.29-1.02-11.42-6.78-10.95-10.52.21-1.68,1.69-2.92,3.36-2.99,3.73-.16,5.85,6.45,11.7,7.16,5.11.62,19.92.65,24.94-.07,1.49-.21,2.92-.8,4.15-1.68,7.22-5.17,14.72-16,21.96-21.98,10.84-8.96,23.61,2.32,16.75,14.06-8.36,9.8-19.75,18.36-27.96,28.1-.85,1.01-3.58,4.44-3.39,5.57,10.65,5.17,18.87,14.17,24.47,24.47,1.63-1.38,3.54-2.41,5.16-3.8,1.98-1.68,6.91-7.7,8.63-8.41,3.5-1.44,6.68,1.64,4.84,4.84-.61,1.07-8.04,8.23-9.43,9.4-2.03,1.71-4.3,3.17-6.7,4.31,3.69,11.26,3.71,23.66-.03,34.9.53.08,1.02.25,1.48.53,11.87,7.35,21.28,22.02,32.14,30.65,4.24,3.37,8.51,1.54,6.92-3.78-6.49-7.49-15.14-14.08-21.49-21.56-1.66-1.95-3.51-4.46-4.28-6.93-1.56-5.02-1.35-22.48-.86-28.27,1.09-13.06,19.1-22.59,26.24-32.5,1.82-2.52.65-5.71-2.46-6.11-4.32-.55-10.26,10.31-13.66,10.12-2.24-.13-3.76-2.45-3.32-4.6.23-1.12,7.75-8.66,9.13-9.74,10.74-8.38,23.66,3.66,16.01,14.67-5.52,7.94-17.42,15.47-22.97,23.22-1.17,1.63-1.64,3.37-1.81,5.36-.51,5.91-.51,16.99,0,22.9.19,2.19.69,3.85,2.02,5.6,5.68,7.4,15.66,14.34,21.77,21.73,9.56,11.57-4.01,24.98-15.49,15.49-9.24-7.63-17.46-18.86-26.66-26.7-1.63-1.38-3.53-2.42-5.16-3.8-5.55,10.23-13.62,19.4-24.41,24.24-.64.9,2.6,4.94,3.33,5.8,8.29,9.84,19.79,18.38,28.12,28.38,6.36,10.64-5.16,22.06-15.66,14.76-7.94-5.52-15.47-17.42-23.22-22.97-1.63-1.17-3.37-1.64-5.36-1.81-5.91-.51-16.99-.51-22.9,0-2.19.19-3.85.69-5.6,2.02-7.4,5.68-14.34,15.66-21.73,21.77-11.51,9.51-24.8-3.91-15.71-15.26,1.35-1.69,8.58-9.09,10.11-10.06,2.49-1.57,5.98-.09,5.81,3.09-.15,2.76-10.37,9.67-11.69,13.48-1.2,3.49,2.62,6.4,5.88,4.05,6.7-4.83,14.1-15.11,20.82-20.88,3.63-3.12,6.76-4.95,11.68-5.36,5.79-.48,23.25-.69,28.27.86,2.19.68,4.72,2.37,6.48,3.83,7.62,6.31,14.37,15.44,22.01,21.94,5.34,1.59,7.14-2.69,3.78-6.92-8.63-10.86-23.3-20.27-30.65-32.14-.28-.46-.46-.95-.53-1.48-11.26,3.73-23.67,3.74-34.94,0-.81,2.23-2.53,4.64-4.07,6.48-1.03,1.23-6.84,7.32-7.81,7.88-3.39,1.96-6.7-1.66-4.93-4.92,1.02-1.88,11.56-10.38,10.03-12.56-10.21-4.77-19.14-13.52-23.74-23.8-.58-.42-4.65,2.74-5.38,3.36-9.84,8.29-18.38,19.79-28.38,28.12-10.64,6.36-22.06-5.16-14.76-15.66,5.52-7.94,17.42-15.47,22.97-23.22,1.17-1.63,1.64-3.37,1.81-5.36.51-5.91.51-16.99,0-22.9-.19-2.19-.68-3.85-2.02-5.6-5.68-7.4-15.66-14.34-21.77-21.73-8.96-10.84,2.31-23.61,14.06-16.75,9.8,8.36,18.36,19.75,28.1,27.96.73.61,4.8,3.78,5.38,3.36,4.7-10.8,14-18.91,24.21-24.44-1.38-1.63-2.41-3.54-3.8-5.16-7.84-9.21-19.06-17.43-26.7-26.66-9.48-11.48,3.92-25.05,15.49-15.49,1.1.91,6.4,6.1,6.88,7.02,1.58,3.04-.68,6.34-4.09,5.45s-9.69-12.95-13.74-7.25c-1.74,2.44-.3,4.3,1.28,6.24,8.72,10.68,23.21,20.23,30.43,31.91.28.46.46.95.53,1.48ZM26.75,64.25c-2.8.14-4.65,3.22-3.17,5.66,6.47,7.41,14.92,13.94,21.27,21.33,3.49,4.06,5.04,7.07,5.39,12.55.39,5.97.71,22.23-.89,27.4-.77,2.47-2.62,4.98-4.28,6.93-6.35,7.47-15,14.07-21.49,21.56-1.6,5.32,2.67,7.15,6.92,3.78,9.26-7.36,17.69-19.12,26.9-26.91,1.89-1.6,4.05-2.86,6.09-4.26-3.25-11.3-3.71-23.48.14-34.7-2.06-1.71-4.42-3-6.46-4.74-9.09-7.78-17.5-19.42-26.66-26.7-.97-.77-2.47-1.95-3.75-1.88ZM124.66,69.06c3.33,5.66,3.47,11.22.09,16.9-1.83,3.06-10.1,12.04-12.75,5.85-1.61-3.76,2.62-4.86,4.61-6.82,4.42-4.34,4.79-9.73.23-14.16-4.43-4.3-10.05-2.53-15.38-1-18.49,5.33-32.89,22.97-33.31,42.42,14.65,6.19,10.83-6.55,13.05-15.15,1.61-6.21,6.26-9.66,12.75-9.21,3.49.24,12.11,1.65,9.14,6.89-2.44,4.32-10.42-2.32-13.71,1.31-2.26,2.5-1.85,9.6-2.44,13.04-1.87,10.82-8.7,12.78-18.78,11.04.93,7.09,3.29,13.97,7.16,19.96.6.93,3.65,5.32,4.28,5.59.72.31.61-.25.76-.56.44-.88.61-1.92,1.17-2.88,6.55-11.14,20.57-12.11,28.77-2.15,1.57,1.91,2.96,5.46,5.08,6.58,4.75,2.53,9.35-2.75,15.7.9,3.52,2.03,4.28,4.99,5.93,8.44,12.49-6.76,21.98-19.33,23.95-33.6-11.47-3.96-17.68-16.73-14.63-28.38.91-3.47,3.05-5.67,5.08-8.45-6.63-8.39-16.13-14.6-26.73-16.56ZM156.04,91.93c-1.03-.26-.73.2-1.02.56-5.58,7.11-1.07,19.23,6.85,22.75-.24-8.33-2.32-15.84-5.83-23.32ZM130.02,159.16c-1.31-9.41-6.38-4.35-11.84-4.44-12.62-.22-11.27-16.21-23.59-14.16-4.31.72-8.21,5.71-8.47,9.95-.14,2.29,4.65,4.7,6.7,5.77,9.67,5.04,20.33,6.5,31.04,4.57,2.09-.38,4.13-1.11,6.17-1.69Z"/>
      <path class="cls-1" d="M197.63,96.96c8.54.57,18.94-1.12,27.26-.11,2.63.32,4.39,2.09,4.71,4.71.68,5.67.57,20.24.01,26.04-.28,2.84-1.73,4.78-4.72,5.14-5.67.68-20.24.57-26.04.01-2.84-.28-4.78-1.73-5.14-4.72-.64-5.34-.64-21.14,0-26.48.28-2.36,1.68-3.94,3.92-4.6ZM222.86,103.58h-22.42v22.42h22.42v-22.42Z"/>
      <path class="cls-1" d="M105.25,193.81c5.73.23,12.23-.63,17.86-.12,1.63.15,2.28.27,3.27,1.66,1.48,2.05,7.66,12.49,8.34,14.53.42,1.24.42,2.29,0,3.54-.68,2.04-6.85,12.47-8.34,14.53-.39.54-.75,1.03-1.39,1.3-1.52.65-16.01.59-18.52.36-1.63-.15-2.28-.27-3.27-1.66-1.42-1.97-7.69-12.59-8.34-14.53-.42-1.24-.42-2.29,0-3.54.46-1.37,7.51-13.58,8.51-14.8.51-.62,1.07-1.08,1.87-1.27ZM108.81,200.52l-6.34,10.27c-.43.64-.22,1.09,0,1.74.28.81,5.54,9.81,6.05,10.12h12.55c.5-.3,5.74-9.24,6.05-10.11.29-.83.29-.91,0-1.74-.31-.88-5.54-9.81-6.05-10.11l-12.25-.15Z"/>
      <path class="cls-1" d="M128.14,103.7c8.47-1.11,16.66,9.32,12.58,17.52-3.96,7.96-25.7,15.23-31.23,6.29-2.56-4.14-1.6-10.73,2.28-13.72,2.16-1.66,5.27-1.58,7.66-3.1,3.27-2.07,4.03-6.38,8.71-6.99ZM129,110.8c-.36.12-4.04,4.66-5.26,5.53-1.86,1.33-7.06,2.62-7.81,3.4-1.22,1.25-1.21,4.34.99,4.83,3.99.87,17.35-3.15,17.98-7.85.32-2.38-3.7-6.63-5.89-5.91Z"/>
    </g>
  </g>
</svg>