<?xml version="1.0" encoding="UTF-8"?>
<svg id="Capa_2" data-name="Capa 2" xmlns="http://www.w3.org/2000/svg" viewBox="0 0 239.85 229.77">
  <defs>
    <style>
      .cls-1 {
        fill: #73a16d;
      }
    </style>
  </defs>
  <g id="Capa_1-2" data-name="Capa 1">
    <g>
      <path class="cls-1" d="M0,223.12c.96-1.31,1.91-2.15,3.22-3.1,11.84-8.62,26.31-16.26,38.75-23.98l5.34-.04c-1.99-5.08-1.56-8.92.39-13.87,2.32-5.89,10.2-17.9,11.22-22.93,1.12-5.49,1.13-14.5,1.53-20.45.05-.7-.04-1.42-.02-2.12-2.92.6-7.36-.35-10.4-1.07-7.2-1.72-11.57-6.34-11.09-14.06.79-12.52,5.73-27.32,7.23-40,3.31-2.28,1.1-4.09,1.1-7.28-.02-15.62,18.96-22.35,29.56-9.82.45.53,1.25,2.56,1.64,2.56.17,0,2.18-1.71,2.82-1.86.26-.35-2.26-3.19-2.67-3.89-11.61-19.79,8.62-42.21,29.46-32.67,13.16,6.02,16.86,23.53,8.03,34.84-1.38,1.77-4.31,3.6-5.09,4.75-.2.3-.68.4-.23.71,4.74,3.82,8.82,8.98,13.36,12.86,1.48,1.27,3.77,3.8,5.64,2.79-.93-4.11-5.75-12.47.54-14.41,8.42-2.6,7.15,12.73,9.74,14.44.5.33,4.71.37,6.21.81,11.59,3.4,12.08,20.11.83,24.19l16.15,55.17c.34.52.88.42,1.39.48,5.79.73,13.19-.53,19.15-.1,2.9-2.5,5.99-9.74,10.03-10.11,2.84-.26,5.37,2.51,5.25,5.24-.08,1.86-6.8,10.38-8.42,12.18-.81.89-1.92,2.21-3.13,2.49l-39.94.35c-11.21,9.82-21.38,20.84-32.78,30.4l-70.5.24-2.28,1-35.12,22.45c-3.02,1.15-5.2.11-6.9-2.44v-3.74ZM95.92,36.23c-16.33,2.35-13.62,28.02,4.04,26.01,16.33-1.87,14.2-28.63-4.04-26.01ZM62.18,67.54c-7.94,1.63-5.94,15.52,3.44,13.25,7.5-1.82,5.43-15.06-3.44-13.25ZM144.63,100.04c1.61-1.53,1.02-4.12-.82-5.25-5.43-1.3-14.73,1.01-19.69-.45-3.26-.97-16.53-15.96-20.59-19.2-7.31-5.84-20.96-3.66-24.26,5.72l-6.66,36.59c8.47-.87,18.58-3.12,25.26-8.68,1.02-.85,2.82-1.96,1.94-3.25-2.44-3.59-10.12-5.2-7.64-11.32,3.43-8.46,13.47,4.49,17.22,6.42,10.61-.67,22.34.92,32.8.03.77-.07,1.86-.06,2.44-.61ZM67.46,91.75l-13.12-2.34-5.64,32.99c-.08,1.26.34,2.56,1.54,3.13.75.36,8.28,1.82,9.01,1.75,1-.09,1.71-1.2,2.23-1.99l5.98-33.54ZM137.19,110.51h-25.63s-2.4,12.54-2.4,12.54c5.33,2.46,10.82,4.81,15.88,7.78,5.22,8.91,18.84,20.34,22.62,29.32,1.66,3.96-.35,5.77,5.53,4.99l-15.99-54.63ZM99.78,119.33c-2,.77-3.8,2.02-5.77,2.88-4.26,1.86-8.77,3.12-13.35,3.98-1.72.32-8.8.83-9.48,1.29-1.65,1.11-.09,7.55,1.79,9.15,3.39,2.88,16.16,3.19,21.29,4.8,4.15,1.31,14.35,6.41,17.22,9.47,5.88,6.26,10.63,14.52,16.64,20.79,7.68,4.51,14.2-2.28,9.05-9.97-5.29-7.91-13.04-15.24-18.42-23.23-5-3.41-12.04-5.1-16.96-8.32-4.74-3.1-1.94-6.27-2.02-10.84ZM82.87,149.3c-2.29-.57-4.68-.72-6.99-1.2-1.32-.27-5.74-2.09-6.33-1.2s-.4,11.91-1,14.43l-12.69,26.61c-1.51,7.3,8.26,11.77,12.72,4.29,4.94-8.3,8.22-18.63,13.17-27.07.54-1.7,1.66-15.21,1.12-15.84ZM77.76,196h33.49l14.3-13.31c1.44-1.19-1.54-1.86-2.78-2.86-7.18-5.79-12.79-16.53-19.28-23.3l-10.5-4.95-1.4,15.45-13.83,28.97Z"/>
      <path class="cls-1" d="M239.85,120.73v3.74c-2.57,5.3-10.35,1.37-14.05,3.04-1.26.57-4.34,5.93-5.84,7.26-4.36,3.88-10.08.2-8.24-4.95.34-.96,7.25-10.03,8.15-10.8,2.44-2.09,11.7-1.91,15.01-1.51,2.58.31,3.49,1.22,4.97,3.22Z"/>
      <path class="cls-1" d="M0,43.59c2.49-2.97,7.37-6.12,10.55-2.35,5.1,6.04-7.31,13.41-10.55,6.09v-3.74Z"/>
      <path class="cls-1" d="M0,20.21v-3.74c3.88-7.4,16.14,1.35,10.28,6.75-3.23,2.97-8.28.05-10.28-3.01Z"/>
      <path class="cls-1" d="M178.38,18c6.38-.81,11.84.48,16.93,4.35.96.73,2.89,3.19,3.66,3.4,1.19.32,2.73-.75,4.11-.87,26.28-2.29,27.37,34.07,4.7,36.02-7.16.62-20.98.63-28.12-.02-25.19-2.31-25.43-39.8-1.28-42.87ZM194.08,36.43c-2.4-2.19-1.89-5.02-6.39-7.41-16.89-8.98-25.07,19.13-8.4,21.94,3.76.63,25.29.72,28.83,0,8.81-1.78,7.97-16.63-2.24-16.63-4.24,0-8.02,5.54-11.8,2.09Z"/>
      <path class="cls-1" d="M26.12,14.72c23.4-2.91,26.31,32.94,3.62,34.47-22.5,1.51-25.26-31.78-3.62-34.47ZM26.57,24.53c-7.92,1.64-7.52,13.75.4,14.81,12.2,1.64,11.24-17.22-.4-14.81Z"/>
      <path class="cls-1" d="M26.57.21c8.65-1.98,8.43,10.75,3.08,11.96-7.54,1.7-8.08-10.81-3.08-11.96Z"/>
      <path class="cls-1" d="M27.04,52.1c7.53-1.7,8.29,10.99,2.69,12.03-8.35,1.55-7.88-10.86-2.69-12.03Z"/>
      <path class="cls-1" d="M49.08,39.46c1.44-.19,2.94.56,4.18,1.23,8.47,4.61.07,14.31-6.84,7.29-2.84-2.88-1.29-8.02,2.66-8.53Z"/>
      <path class="cls-1" d="M50.46,13.77c8.22-1.71,8.28,9.4.33,10.62-7.31,1.12-7.98-9.03-.33-10.62Z"/>
      <path class="cls-1" d="M204.13,140.45c5.16-.63,7.73,7.15,2.64,9.22-7.6,3.08-9.22-8.41-2.64-9.22Z"/>
    </g>
  </g>
</svg>