<?xml version="1.0" encoding="UTF-8"?>
<svg id="Capa_2" data-name="Capa 2" xmlns="http://www.w3.org/2000/svg" viewBox="0 0 233.38 229.77">
  <defs>
    <style>
      .cls-1 {
        fill: #f25c5c;
      }
    </style>
  </defs>
  <g id="Capa_1-2" data-name="Capa 1">
    <g>
      <path class="cls-1" d="M.18,186.63c1.15-9,10.45-18.36,19.57-19.11-6.95-8.99-4.97-22.16,4.68-28.31,15.89-10.13,35.42,5.36,29.01,23.1-.73,2.02-2.06,3.29-2.74,5.21,7.98,1.07,15.44,7.33,18.1,14.89,1.63,4.66,2.32,15.1.77,19.68-2.09,6.18-8.67,8.64-14.78,7.75-1.03,4.78,2.87,18.79-3.85,19.58-9.68,1.13-21.5-.88-31.42,0-1.2.32-3.86-2.12-3.86-2.97v-16.61h-6.6c-.21,0-2.35-1.04-2.81-1.28-3.22-1.69-4.58-4.19-6.06-7.36.42-4.58-.57-10.11,0-14.56ZM34.22,143.97c-14.8,1.17-13.39,23.66,1.23,23.12,15.74-.58,14.08-24.33-1.23-23.12ZM31.12,175.26h-11.15c-.19,0-3.07,1.2-3.56,1.44-7.84,3.9-9.41,13.05-8.5,21.08.53,4.64,3.83,4.46,7.73,4.32v-11.83h7.74v30.94h23.21v-30.94h8.19v11.83c2.32.15,6.54.25,7.18-2.6.42-1.88.33-9.61.06-11.69-.67-5.11-5.46-10.5-10.33-11.97-3.9-1.18-8.34-.33-12.39-.58v11.38h-8.19v-11.38Z"/>
      <path class="cls-1" d="M.18,50.58c2.18-9.67,9.59-17.59,19.56-19.12C6.99,14.88,25.84-7.46,44.46,2.44c10.62,5.65,13.32,19.43,6.23,29.03,11.36,2.11,18.84,11.03,19.59,22.51.25,3.77.33,10.05-1.16,13.45-2.35,5.35-8.9,7.39-14.34,6.82-.74,3.88,2.12,18.14-2.97,19.1-10.4-.7-22.07.97-32.32.03-1.32-.12-2.32-.23-3.15-1.4-1.75-2.44-.04-17.08-.69-17.74-7.16.7-13.03-2.18-15.47-9.1v-14.56ZM32.37,8.38c-11.52,1.95-11.55,20.97.84,22.6,17.84,2.35,17.81-25.75-.84-22.6ZM31.12,39.21h-10.24c-3.53,0-9.18,4.73-10.89,7.76-2.06,3.66-2.55,10.62-2.08,14.76.54,4.71,3.77,4.52,7.73,4.32v-11.83h7.74v31.4h23.21v-30.71s.63-.68.68-.68h6.83s.68.63.68.68v11.15c2.55.01,6.46.65,7.18-2.6.42-1.89.31-8.67.09-10.82-1.16-11.69-12.72-14.73-22.75-13.43v11.38h-8.19v-11.38Z"/>
      <path class="cls-1" d="M110.2,62.55c57.03-5.05,83.48,66.39,38,98.52-38.74,27.36-91.84-4.57-85.63-51.5,3.14-23.74,23.43-44.87,47.63-47.01ZM116.66,162.97v-8.87c0-.24.86-1.29,1.14-1.59,2.12-2.24,11.84-7.87,12.76-9.56s-3.35-5.63-2.33-7.74l12.76-21.39c.84-.79,12.62-5.58,13.82-5.66,2.5-.16,5.37,1.98,7.8,2.48-3.02-26.68-29.77-45.44-55.98-39.37-.66.15-3.58.77-3.61,1.38,2.02,2.27,3.31,8.45,5.21,10.25,3.86,3.65,13.33,7.09,17.95,10.71,1.3,1.02,2.11,1.89,2.32,3.6.31,2.65.33,14.84-.36,16.95l-19.93,28.3c-1.24,1.66-3.62,1.85-5.36.86-5.58-4.43-11.83-8.12-16.87-13.16l-3.99-22.63-9.92-4.64c-8.9,29.55,13.5,60.72,44.59,60.06ZM95.73,75.61c-8.88,3.64-15.92,11.72-20.47,20.01,3.63,1.88,8.86,3.6,12.15,5.83,1.6,1.09,1.8,1.79,2.29,3.63,1.73,6.55,1.76,14.37,3.55,21.02l10.92,8.18,15.9-22.29c.15-2.21.82-11.81-.2-12.95-4.75-3.66-15.6-7.41-18.75-12.19-2.06-3.13-3.67-7.81-5.38-11.24ZM163.05,119.31c-2.23-.14-5.88-2.8-7.9-2.74-1.1.04-8.16,3.02-8.93,3.84l-9.33,15.67c1.62,5.3,5.67,7.11.45,11.85-3.65,3.31-8.71,6.08-12.53,9.31-.91,1.25-.23,3.71-.42,5.26,21.21-3.58,37.39-21.72,38.65-43.2Z"/>
      <path class="cls-1" d="M217.67,226.44c-.25,1.17-2.49,3.11-3.86,2.97-9.92-.88-21.73,1.13-31.42,0-6.73-.79-2.82-14.81-3.85-19.58-6.11.9-12.69-1.57-14.78-7.75-1.55-4.57-.86-15.01.77-19.68,2.65-7.57,10.12-13.82,18.1-14.89-.69-1.92-2.02-3.2-2.74-5.21-6.41-17.74,13.27-33.32,29.01-23.1,9.63,6.25,11.63,19.23,4.67,28.31,8.69.94,16.77,8.39,18.89,16.84.9,3.59,1.24,13.69.37,17.21-.74,2.96-5.5,8.27-8.56,8.27h-6.6v16.61ZM197.11,143.98c-13.39,1.09-14.11,21.65-.09,23.04,16.47,1.63,16.77-24.4.09-23.04ZM194.01,175.26h-10.69c-.72,0-4.6,1.82-5.39,2.35-7,4.74-7.41,12.86-6.69,20.65.39,4.28,3.77,3.92,7.3,3.85v-11.83h8.19v30.94h23.21v-30.94h7.74v11.83c2.98.08,6.69.43,7.54-3.15.99-4.18.12-12.43-1.99-16.28-4.42-8.07-12.93-7.79-21.02-7.41v11.38h-8.19v-11.38Z"/>
      <path class="cls-1" d="M213.58,31.47c10.08,1.52,18.77,10.45,19.58,20.69.35,4.45.58,12.78-1.75,16.48-3.01,4.78-8.41,5.97-13.74,5.6-.65.65,1.06,15.3-.69,17.74-.32.45-.76.78-1.24,1.03l-34.91.1c-4.05-1.69-1.63-14.99-2.28-18.87-8.31.71-14.87-3.33-15.49-12.04-1.08-14.98,3.81-27.39,19.58-30.74-7.28-9.75-4.16-24.03,6.81-29.36,18.63-9.06,36.69,13.05,24.13,29.36ZM195.72,8.38c-9.47,1.51-12.25,15.03-4.4,20.56,9.94,7.01,22.63-3.84,17.06-14.78-2.44-4.79-7.49-6.61-12.65-5.78ZM194.01,39.21h-10.24c-.58,0-3.81,1.41-4.56,1.81-8.16,4.37-8.74,12.78-7.97,21.19.42,4.58,3.59,3.88,7.3,3.85v-11.15s.63-.68.68-.68h6.83s.68.63.68.68v30.71h23.21v-31.4h7.74v11.83c8.7,1.46,8.28-5.01,7.73-11.6-.41-4.9-2.05-8.71-5.9-11.84-5.35-4.35-10.82-3.38-17.3-3.41v11.38h-8.19v-11.38Z"/>
      <path class="cls-1" d="M161.25,30.12c.3.4-3.45,7.2-3.86,7.23-25.22-13.11-56.22-13.08-81.46,0l-3.87-6.99c27.57-14.54,61.44-14.2,89.2-.24Z"/>
      <path class="cls-1" d="M152.6,198.46c.14,1.52,3,5.94,2.7,6.98-.42,1.45-12.83,5.02-14.97,5.53-17.94,4.34-36.1,3.82-53.68-1.84-1.7-.55-6.74-2.16-7.93-2.98-1.88-1.3,1.89-5.76,2.01-7.69,22.9,9.74,48.99,9.81,71.88,0Z"/>
      <path class="cls-1" d="M212.66,100.64c1.43,10.51,1.62,21.11,0,31.62.11.78.07.73-.67.69-2.33-.14-5.14-1.06-7.51-1.38,1.83-9.67,1.85-19.68.12-29.37.19-.98,6.84-1.68,8.06-1.56Z"/>
      <path class="cls-1" d="M28.85,131.57l-8.19,1.37-1.4-16.15,1.4-16.15c1.23-.12,7.87.58,8.06,1.56-1.67,9.68-1.81,19.71.12,29.37Z"/>
      <rect class="cls-1" x="31.12" y="194.37" width="8.19" height="7.74"/>
      <path class="cls-1" d="M39.31,58.32v7.51s-.63.68-.68.68h-7.51v-8.19h8.19Z"/>
      <rect class="cls-1" x="194.01" y="194.37" width="8.19" height="7.74"/>
      <path class="cls-1" d="M202.2,58.32v8.19h-7.51s-.68-.63-.68-.68v-7.51h8.19Z"/>
    </g>
  </g>
</svg>