<?xml version="1.0" encoding="UTF-8"?>
<svg id="Capa_2" data-name="Capa 2" xmlns="http://www.w3.org/2000/svg" viewBox="0 0 141.96 104.51">
  <defs>
    <style>
      .cls-1 {
        fill: #fff;
      }
    </style>
  </defs>
  <g id="Capa_1-2" data-name="Capa 1">
    <g>
      <path class="cls-1" d="M.15,63.6c.83-8.94,5.86-16.16,11.48-22.7,7.92-9.2,16.52-17.84,24.36-27.12,2.94-2.93,6.81-5.38,10.93-6.23,1.17-.24,4.09-.26,4.71-.55.34-.15,3.41-3.85,4.29-4.57,4.28-3.54,10.32-3.13,14.28.68.36.35.49.95.54.98.39.3,1.02-.93,1.53-1.37,3.82-3.33,9.49-3.71,13.55-.55,1.01.78,4.18,4.65,4.58,4.83.73.33,1.76.05,2.59.18,4.61.69,8.82,2.57,12.22,5.77.65.62,3.77,3.98,4.03,4.55.84,1.91-.57,3.59-2.59,3.15-.89-.2-4.39-4.48-5.61-5.47-7.92-6.44-19.97-4.37-25.26,4.34-.94,1.54-2.55,5.13-2.55,6.86v23.94l4.16-5.94c5.29-5.98,12.09-10.4,19.97-12.14,6.62-1.45,13.39-.86,19.88.92.35-.26-5.25-5.74-5.47-6.57-.73-2.75,2.11-4.08,3.96-2.02,9.91,12.55,25.05,22.89,26.16,40.27,2.43,38.15-45.7,54.35-67,23.27l-4-7.34c-8.03,21.47-33.99,30.47-53.64,18.21C8.39,93.46,1.12,82.71.15,72.18c-.2-2.2-.2-6.38,0-8.58ZM68.79,15.45v-6.23c0-.92-1.84-3.17-2.63-3.73-3.23-2.31-7.19-.86-9.27,2.21,3.29.79,6.25,2.45,8.86,4.57l3.04,3.19ZM73.22,9.22c-.3,1.81.22,4.33,0,6.23l3.32-3.46c2.57-1.95,5.42-3.54,8.58-4.29-1.94-2.72-4.94-4.18-8.22-2.82-1.41.59-3.43,2.83-3.68,4.34ZM68.79,50.32v-23.94c0-6.21-6.93-12.97-12.73-14.39-8.19-2.01-13.28,1.11-18.68,6.77-3.8,3.98-8.45,9.04-11.9,13.28-.15.18-.77,1.04-.69,1.11,14.62-4.4,29.94-.43,39.85,11.22l4.16,5.94ZM34.97,35.73c-25.33,1.37-39.24,30.1-24.52,50.93,13.59,19.24,43.02,17.49,54.34-3.13,12.13-22.09-4.7-49.17-29.82-47.81ZM103.88,35.73c-23.73,1.29-38.26,26.81-26.66,47.81,12.04,21.77,43.47,22.16,56,.63,12.74-21.9-4-49.81-29.34-48.44Z"/>
      <path class="cls-1" d="M41.81,85.19c-1.31-.13-3.59-.77-4.9-1.19-11.8-3.72-19.29-16.19-17.38-28.43l-2.26,3.69c-.89,2.49-1.83,5.4-1.9,8.06-.04,1.77,1.21,5.79-1.01,6.46-1.91.57-2.89-.91-3.09-2.6-3.4-27.8,34.12-39.97,47.62-15.79,14.1,25.25-18.3,50.77-39.49,31.47-1.54-1.4-6.01-5.87-4.02-7.91,2.42-2.48,4.87,2.62,6.41,4.14,7.42,7.31,18.85,7.82,27.37,2.1-.03-.73-1.09,0-1.24,0-1.92,0-4.24.18-6.09,0ZM55.16,78.2c.69-.69,1.99-4.83,2.21-5.96,2.97-15.6-10.77-28.63-26.16-24.78-1.1.27-4.18,1.29-4.88,2.04-.62.67-1.75,3.9-2.01,4.91-4.07,16.22,11.16,30.5,27.1,25.44.64-.2,3.4-1.31,3.74-1.66Z"/>
      <path class="cls-1" d="M104.16,42.38c20.45-1.01,33.65,21.54,22.97,39.03-9.98,16.35-34.32,15.96-43.82-.63-9.51-16.62,1.74-37.45,20.84-38.39ZM86.86,78.2c.35.35,3.09,1.45,3.74,1.66,16.12,5.12,31.46-9.57,26.98-25.88-.25-.91-1.34-3.88-1.89-4.48-.7-.75-3.78-1.77-4.88-2.04-14.75-3.69-28.05,8.05-26.44,23.12.15,1.39,1.6,6.73,2.49,7.61ZM100.2,85.19c-1.85.18-4.17,0-6.09,0-.16,0-1.21-.73-1.24,0,3.27,1.93,6.8,3.57,10.66,3.87,18.15,1.42,29.42-18.66,19.09-33.49-.18,1.81.24,3.55.14,5.4-.67,11.93-10.47,23.06-22.55,24.22Z"/>
    </g>
  </g>
</svg>