<?xml version="1.0" encoding="UTF-8"?>
<svg id="Capa_2" data-name="Capa 2" xmlns="http://www.w3.org/2000/svg" xmlns:xlink="http://www.w3.org/1999/xlink" viewBox="0 0 629.59 1298.82">
  <defs>
    <style>
      .cls-1 {
        fill: #5c3896;
      }

      .cls-2 {
        fill: #fff;
      }

      .cls-3 {
        fill: #009db3;
      }

      .cls-4 {
        fill: none;
      }

      .cls-5 {
        fill: #4cc0e6;
      }

      .cls-6 {
        fill: #ee8722;
      }

      .cls-7 {
        fill: #3f1d57;
      }

      .cls-8 {
        fill: #2575b5;
      }

      .cls-9 {
        fill: #2476b6;
      }

      .cls-10 {
        fill: #fcc10b;
      }

      .cls-11 {
        fill: #c52628;
      }

      .cls-12 {
        fill: #fac49e;
      }

      .cls-13 {
        fill: #96d2dc;
      }

      .cls-14 {
        fill: #f15857;
      }

      .cls-15 {
        fill: #0094b4;
      }

      .cls-16 {
        clip-path: url(#clippath);
      }

      .cls-17 {
        fill: #82ced7;
      }

      .cls-18 {
        fill: #fbce1e;
      }
    </style>
    <clipPath id="clippath">
      <rect class="cls-4" width="629.59" height="1298.82"/>
    </clipPath>
  </defs>
  <g id="Capa_1-2" data-name="Capa 1">
    <g class="cls-16">
      <g>
        <path class="cls-11" d="M52.73,258.21c0-128.54,104.1-232.74,232.54-232.74,128.42,0,232.54,104.2,232.54,232.74H52.73Z"/>
        <path class="cls-5" d="M660.67,1341.65c-36.91-51.82-71.31-132.71-92.94-226.77-39.68-172.54-21.34-324.04,40.96-338.36l143.68,624.85c-28.34,6.52-60.89-16.47-91.7-59.71"/>
        <path class="cls-15" d="M729.79,957.94c-211.07,60.88-431.48-60.71-492.31-271.61-60.82-210.88,60.97-431.19,272.04-492.07l220.27,763.67Z"/>
        <path class="cls-18" d="M708.19,1025.42c-24.21-24.84-51.92-65.85-76.14-115.3-44.43-90.71-60.31-175.47-35.47-189.31l160.9,328.51c-11.3,6.3-29.08-3.17-49.28-23.9"/>
        <path class="cls-1" d="M789.4,881.44c-49.41-40.07-104.17-108.84-150.13-193.71-84.32-155.68-107.11-306.57-50.91-337.01l305.35,563.77c-25.57,13.85-63.08.39-104.31-33.05"/>
        <path class="cls-8" d="M681.83,855.73c-35.73-36.07-73.22-95.38-102.37-166.69-53.47-130.81-58.58-252.49-11.41-271.77l193.63,473.72c-21.46,8.77-50.04-5.16-79.85-35.26"/>
        <path class="cls-6" d="M628.9,853.86c-27.61-35.82-56.47-92.53-78.76-159.08-40.87-122.08-44.13-231.06-7.27-243.4l148.02,442.11c-16.77,5.61-38.95-9.73-61.99-39.63"/>
        <path class="cls-3" d="M561.08,844.2c-27.61-35.82-56.47-92.53-78.76-159.08-40.87-122.08-44.13-231.06-7.27-243.4l148.02,442.11c-16.77,5.61-38.95-9.73-61.99-39.63"/>
        <path class="cls-9" d="M718.87,518.17c-81.21,58.54-194.45,40.23-252.95-40.91-58.49-81.13-40.08-194.37,41.13-252.91l211.82,293.82Z"/>
        <path class="cls-6" d="M574.72,574.96c-94.66,32.58-197.78-17.67-230.34-112.25-32.55-94.57,17.8-197.66,112.45-230.24l117.88,342.49Z"/>
        <path class="cls-14" d="M277.12,582.93c-92.87-37.37-137.9-142.87-100.57-235.67,37.33-92.79,142.89-137.72,235.76-100.36l-135.2,336.03Z"/>
        <circle class="cls-2" cx="213.28" cy="113.56" r="43.22"/>
        <ellipse class="cls-7" cx="213.72" cy="113.44" rx="27.57" ry="28.14"/>
        <path class="cls-12" d="M92.43,281.34c-42.19,0-76.4-34.17-76.4-76.33,0-42.15,34.2-76.33,76.4-76.33v152.66Z"/>
        <path class="cls-1" d="M196.76,296.31c-29.83,29.83-78.18,29.86-107.99.05-29.81-29.81-29.79-78.16.05-107.99l107.95,107.95Z"/>
        <path class="cls-13" d="M475.8,610.24c-96.83,25.4-195.9-32.43-221.28-129.19-25.38-96.75,32.55-195.77,129.39-221.17l91.9,350.36Z"/>
        <path class="cls-17" d="M632.17,359.67c-51.58,37.19-123.51,25.56-160.67-25.98-37.15-51.53-25.46-123.46,26.13-160.65l134.54,186.63Z"/>
        <path class="cls-15" d="M543.54,398.66c-60.13,20.7-125.63-11.22-146.31-71.3-20.68-60.07,11.3-125.55,71.43-146.25l74.88,217.55Z"/>
        <path class="cls-10" d="M354.5,403.73c-58.99-23.73-87.59-90.75-63.88-149.7,23.71-58.94,90.76-87.48,149.75-63.75l-85.87,213.44Z"/>
        <path class="cls-6" d="M480.7,421.07c-61.51,16.13-124.44-20.6-140.56-82.06-16.12-61.45,20.68-124.35,82.18-140.48l58.37,222.54Z"/>
        <path class="cls-14" d="M332.81,308.44c-27.91-36.67-12.37-95.45,34.72-131.29,47.08-35.83,107.88-35.16,135.79,1.51l-170.51,129.77Z"/>
      </g>
    </g>
  </g>
</svg>