<?xml version="1.0" encoding="UTF-8"?>
<svg id="Capa_2" data-name="Capa 2" xmlns="http://www.w3.org/2000/svg" viewBox="0 0 250.87 208.37">
  <defs>
    <style>
      .cls-1 {
        fill: #73a16d;
      }
    </style>
  </defs>
  <g id="Capa_1-2" data-name="Capa 1">
    <g>
      <path class="cls-1" d="M250.6,83.14c-.88,10.4-5.1,22.03-10.37,30.96-6.47,10.98-16.53,19.07-24.36,28.95-3.74,4.72-9.46,8.05-15.65,7.58.21,10.56-8.39,19.65-19.05,19.1-.2,11.28-8.36,19.13-19.53,19.59.14,13.35-12.77,22.55-25.47,17.79-5.9-2.21-10.18-9.01-14.99-12.91-.63-.11-7.96,7.48-9.5,8.49-12.97,8.57-29.48-.6-29.31-15.87-10.47.33-19.59-8.51-19.08-19.07-10.54.08-19.57-8.38-19.09-19.05-8.21-.3-14.9-4.41-17.95-12.12-.62-1.57-.81-3.83-1.36-4.99s-4.2-4.04-5.36-5.4C-3.31,99.57-6.94,62.63,13.01,33.1,38.29-4.32,91.11-11.18,125.25,18.5c10.11-7.77,21.24-14.18,33.88-16.81,15.75-3.28,38.03-1.49,51.87,7.34,5.5,3.51,3.77,9.98-1.73,9.97-1.73,0-9.98-4.43-12.7-5.33-48.02-15.98-72.45,21.58-102.2,50.42-6.02,8.55,1.04,19.17,11.1,17.46,6.87-1.17,15.58-14.59,21.53-18.57,15.31-2.91,25.62,3.39,38.73-7.73,2.66-2.25,7.97-8.97,10.35-10.19,3.91-2.01,8.05.65,7.55,5.09-.39,3.48-9.47,10.07-11.76,13.2l-7.83,5.86,50.38,50.37,3.65,5.63c20.02-17.92,27.78-46.08,18.85-71.66-1.23-3.52-5.72-10.57-5.39-13.63.52-4.71,6.7-5.76,9.69-1.43,4.08,5.91,8.75,21.84,9.37,29.02.36,4.14.35,11.5,0,15.65ZM118.07,25.44c-5.39-3.79-10.51-7.42-16.64-10.02C50.51-6.18-2.46,40.76,12.79,93.78c2.76,9.6,8.01,18.94,15.05,26.03,5.51-5.69,12.03-14.84,20.17-16.5,12.15-2.48,22.73,6.75,22.62,18.96,10.59-.81,19.48,8.69,19.07,19.07,10.52-.58,19.58,8.56,19.07,19.07,12.19-.03,19.99,9.26,19.08,21.27-.11,1.46-1.29,2.95-.75,4.14.3.68,9.53,9.78,10.56,10.5,8.68,6.08,18.07-4.03,11.96-11.96-7.26-9.43-20.34-18.16-27.63-27.63-4.32-5.62,1.4-11.43,7.28-7.28,8.79,6.21,17.92,19.39,26.68,26.62,9.45,7.8,19.23-2.76,12.74-11.27l-39.87-39.84c-3.89-4.52,1.35-10.94,6.34-7.81l39.63,39.6c7.46,7.16,18.72.06,14.12-9.71-13.65-14.37-28.46-27.73-41.69-42.43-2.02-4.29,1.64-8.35,6.19-7.16,15.29,13.23,28.51,29.02,43.69,42.38,9.67,3.45,16.07-7.12,9.01-14.39l-53.17-52.95h-21.32c-9.42,7.79-15.88,20.51-29.93,19.45-16.72-1.25-25.64-21.03-15.18-34.24,8.44-10.66,22.12-20.43,31.08-31.03l.48-1.22ZM50.96,113.08c-3.69.4-13.72,9.93-15.17,13.22-3.23,7.34,4.37,14.76,11.63,11.14,1.46-.73,11.32-10.48,12.06-11.91,3.17-6.14-1.86-13.18-8.52-12.45ZM70.53,132.14c-1.43.11-3.35,1.01-4.54,1.86-1.81,1.29-8.38,7.93-9.79,9.77-5.78,7.51,2.41,17.24,10.98,12.45,2.4-1.34,10.47-9.51,11.53-11.94,2.55-5.83-1.77-12.64-8.18-12.13ZM87.62,151.72c-1,.2-2.01.97-2.81,1.59-1.75,1.35-8.59,8.09-9.77,9.79-4.48,6.39.63,14.68,8.53,13.42,3.33-.53,13.9-10.94,14.71-14.14,1.82-7.12-3.67-12.09-10.66-10.66ZM107.18,170.79c-3.08.63-13.51,11.04-14.31,14.05-2.05,7.71,5.87,13.71,12.66,9.72,1.64-.96,11.02-10.67,11.67-12.29,2.66-6.67-2.97-12.94-10.02-11.49Z"/>
      <path class="cls-1" d="M228.93,21.67c5.08,4.48-2.28,12.23-7.02,7.5-4.47-4.46,2.14-11.81,7.02-7.5Z"/>
      <path class="cls-1" d="M113.01,135.64c7.33-.25,6.5,11.96-1.31,9.86-5.34-1.43-4.22-9.68,1.31-9.86Z"/>
    </g>
  </g>
</svg>