<?xml version="1.0" encoding="UTF-8"?>
<svg id="Capa_2" data-name="Capa 2" xmlns="http://www.w3.org/2000/svg" viewBox="0 0 248 248">
  <defs>
    <style>
      .cls-1 {
        fill: #0396a6;
      }
    </style>
  </defs>
  <g id="Capa_1-2" data-name="Capa 1">
    <path class="cls-1" d="M66.47,248c-2.27-1.49-5.45-2.44-6.3-5.33-3.92,2.26-9.05,2.1-12.74-.56-1-.73-2.75-3.22-2.97-3.24-.18-.02-2.37,1.19-3.44,1.34-3.45.49-6.63.02-9.35-2.18-.82-.66-2.49-3.02-2.69-3.03s-2.58,1.24-3.88,1.39c-7.62.85-13.17-4.06-13.31-11.62-.31-.32-7.49.27-8.95,0-3.96-.75-3-7.25-.49-7.25h9.44v-19.12c0-1.07,1.09-4.5,1.44-5.82,1.66-6.17,4.8-11.92,6.3-18.15H2.81c-.31,0-2.21-1.5-2.41-1.94-.99-2.16.47-5.8,2.9-5.8h19.12c.23-2.26.85-4.76.99-7,.15-2.42.31-15.92-.27-17.2-.67-1.49-3.15-2.24-3.59-5.12-.76-4.91-.56-20.43-.06-25.65.35-3.6,3.9-5.89,3.9-6.27v-23.96h-12.83c-.65,0-4.48-1.53-5.25-2.01-6.92-4.36-7.3-15.49.16-19.3-2.27-4.02-2.18-9.37.77-13.02.66-.82,3.02-2.49,3.03-2.69.02-.18-1.19-2.37-1.34-3.44-.5-3.58.03-6.86,2.39-9.63.59-.69,2.81-2.23,2.83-2.42s-1.19-2.37-1.34-3.44c-1.09-7.76,3.82-13.6,11.58-13.75.48-3-1.34-9.46,1.67-11.16,2.89-1.63,6.08.54,6.08,3.65v7.5h18.64c1.07,0,4.5,1.09,5.82,1.44,6.17,1.66,11.92,4.8,18.15,6.3V2.81c0-.31,1.5-2.21,1.94-2.41,2.16-.99,5.8.47,5.8,2.9v19.12c2.26.23,4.76.85,7,.99,2.42.15,15.92.31,17.2-.27,1.49-.67,2.24-3.15,5.12-3.59,4.91-.76,20.43-.56,25.65-.06,3.6.35,5.89,3.9,6.27,3.9h23.96v-12.83c0-.65,1.53-4.48,2.01-5.25,4.36-6.92,15.5-7.29,19.3.16,4.02-2.27,9.37-2.18,13.02.77.82.66,2.49,3.02,2.69,3.03.18.02,2.37-1.19,3.44-1.34,3.45-.49,6.63-.02,9.35,2.18.82.66,2.49,3.02,2.69,3.03s2.58-1.24,3.88-1.39c7.63-.85,13.17,4.07,13.31,11.62,4,.47,8.72-1.45,11.62,1.93v3.39c-2.4,3.5-7.87,1.37-11.62,1.94v19.12c0,.6-1.06,4.46-1.32,5.46-1.62,6.29-4.95,12.16-6.43,18.5h16.7c.49,0,2,1.65,2.66,1.94v3.39c-.58.84-2.13,2.42-3.15,2.42h-19.12c-.23,2.26-.85,4.76-.99,7-.15,2.42-.31,15.92.27,17.2.67,1.49,3.15,2.24,3.59,5.12.76,4.91.56,20.43.06,25.65-.35,3.6-3.9,5.89-3.9,6.27v23.96h12.83c.97,0,4.83,1.71,5.81,2.42,2.18,1.59,3.49,3.91,4.6,6.29v6.29c-1.49,2.27-2.44,5.45-5.33,6.3,2.26,3.92,2.1,9.05-.56,12.74-.73,1-3.22,2.75-3.24,2.97-.02.18,1.19,2.37,1.34,3.44.49,3.44.02,6.63-2.18,9.35-.66.82-3.02,2.49-3.03,2.69s1.24,2.58,1.39,3.88c.85,7.61-4.05,13.16-11.62,13.31v9.44c0,.2-1.81,1.53-1.94,2.18h-3.39c-1.11-.56-2.42-3.03-2.42-4.11v-7.5h-18.64c-.6,0-4.46-1.06-5.46-1.32-6.29-1.62-12.16-4.95-18.5-6.43v16.7c0,.49-1.65,2-1.94,2.66h-3.39c-.84-.58-2.42-2.13-2.42-3.15v-19.12c-2.26-.23-4.76-.85-7-.99-2.42-.15-15.92-.31-17.2.27-1.49.67-2.24,3.15-5.12,3.59-4.91.76-20.43.56-25.65.06-3.6-.35-5.89-3.9-6.27-3.9h-23.96v12.83c0,.97-1.71,4.83-2.42,5.81-1.59,2.18-3.91,3.49-6.29,4.6h-6.29ZM166.67,50.73c-.98-5.53.73-13.77,0-19.61-4.42-.32-7.4,3.37-7.77,7.48-.57,6.39-.22,16.42,1.73,22.51,3.26,10.18,13.78,19.52,13.78,31.24v12.34h24.45c3.2,0,3.79,7.75-.48,7.75h-27.83v23.24h50.83v-23.24h-8.96c-2.6,0-4.42-6.27-.27-7.53,1.22-.37,4.7-.04,4.87-.21.5-.51-.13-12.21-.02-14.3.88-17.66,11.23-30.53,12.14-47.4.28-5.12.42-12.92,0-17.95-.23-2.74-.79-5.71-4.12-5.8-8.65-.23.82,17.39-9.1,15.15-6.41-1.44,1.45-19.49-6.7-19.01-8.18.48,1.02,17.27-8.79,15.14-6.48-1.41,1.53-19.52-6.81-19.12-7.84.38.88,17.42-8.68,15.25-5.74-1.3-.44-15.74-4.03-18.23-3.25-2.25-6.07,0-6.48,3.57-1.38,12.16,1.05,26.76-.03,39.18-1.04,4.24-6.97,3.76-7.72-.46ZM104.71,30.65h-21.54c-5.26,0-18.42-6.31-24.2-8.24-10.5-3.5-22.81-4.34-33.91-3.4-2.84.24-5.99.9-5.78,4.44.48,8.21,17.36-1.06,15.14,8.79-1.44,6.41-19.49-1.45-19.01,6.7s17.31-1,15.14,8.79c-1.42,6.41-19.52-1.48-19.12,6.81.38,7.84,17.42-.88,15.25,8.68-1.3,5.74-15.74.44-18.23,4.03-2.25,3.25,0,6.07,3.57,6.48,12.16,1.38,26.76-1.05,39.18.03,4.55.74,3.24,7.72-.46,7.72h-19.61c-.32,4.42,3.37,7.4,7.48,7.77,6.39.57,16.42.22,22.51-1.73,10.18-3.26,19.52-13.78,31.24-13.78h12.34V30.65ZM135.69,26.77h-23.24v50.83h23.24V26.77ZM153.6,30.65h-10.17v43.08h15.01c-6.89-9.81-8.31-23.82-7.25-35.57.24-2.64,1.11-5.23,2.41-7.51ZM106.06,81.58c-.57-.33-11.57-.19-13.15-.04-3.83.35-8.16,1.68-11.46,3.65v20.63c2.82,1.63,3.68,4.27,3.91,7.34.43,5.71.61,17.23-.02,22.77-.46,4.04-3.79,6.02-3.88,6.39-.39,1.63-.17,9.88,0,12.02.31,4.26,1.67,8.43,3.48,12.25l20.88.09c1.31-2.3,3.77-3.59,6.39-3.88,4.51-.51,20.84-.62,24.96.22,3.03.61,4.84,3.59,5.15,3.67,1.64.39,9.88.17,12.02,0,4.26-.31,8.43-1.67,12.25-3.48l.09-20.88c-2.3-1.31-3.59-3.77-3.88-6.39-.51-4.51-.62-20.84.22-24.96.61-3.03,3.59-4.84,3.67-5.15.39-1.64.17-9.88,0-12.02-.31-4.26-1.67-8.43-3.48-12.25l-20.88-.09c-1.1,1.88-3.01,3.24-5.15,3.67-3.93.79-21.19.75-25.4.17-1.19-.16-3.17-.96-4.13-1.68-.83-.62-1.44-1.97-1.58-2.05ZM73.73,104.71v-15.01c-6.04,4.22-14.18,6.75-21.55,7.26-6.69.46-14.83.54-21.05-1.93v9.68h42.6ZM77.6,112.46H26.77v23.24h8.96c2.6,0,4.42,6.27.27,7.53-1.22.37-4.7.04-4.87.21-.5.51.13,12.21.02,14.3-.88,17.66-11.23,30.53-12.14,47.4-.28,5.12-.42,12.92,0,17.95.23,2.74.79,5.71,4.12,5.8,8.65.23-.82-17.39,9.1-15.15,6.41,1.44-1.45,19.49,6.7,19.01,8.18-.48-1.02-17.27,8.79-15.14,6.48,1.41-1.53,19.52,6.81,19.12,7.84-.38-.88-17.42,8.68-15.25,5.74,1.3.44,15.74,4.03,18.23,3.25,2.25,6.07,0,6.48-3.57,1.38-12.16-1.05-26.76.03-39.18.74-4.55,7.72-3.24,7.72.46v19.61c4.42.32,7.4-3.37,7.77-7.48.57-6.39.22-16.42-1.73-22.51-3.26-10.18-13.78-19.52-13.78-31.24v-12.34h-24.45c-3.2,0-3.79-7.75.48-7.75h27.83v-23.24ZM217.02,143.44h-42.6v15.01c6.04-4.22,14.18-6.75,21.55-7.26,6.69-.46,14.83-.54,21.05,1.93v-9.68ZM217.02,166.67c.32-4.42-3.37-7.4-7.48-7.77-6.39-.57-16.42-.22-22.51,1.73-10.18,3.26-19.52,13.78-31.24,13.78h-12.34v43.08h21.54c5.26,0,18.42,6.31,24.2,8.24,10.5,3.5,22.81,4.34,33.91,3.4,2.84-.24,5.99-.9,5.78-4.44-.48-8.21-17.36,1.06-15.14-8.79,1.44-6.41,19.49,1.45,19.01-6.7-.48-8.18-17.27,1.02-15.14-8.79,1.41-6.48,19.52,1.53,19.12-6.81-.38-7.84-17.42.88-15.25-8.68,1.3-5.74,15.74-.44,18.23-4.03,2.25-3.25,0-6.07-3.57-6.48-12.16-1.38-26.76,1.05-39.18-.03-4.55-.74-3.24-7.72.46-7.72h19.61ZM135.69,170.55h-23.24v50.83h23.24v-50.83ZM104.71,174.42h-15.01c6.89,9.81,8.31,23.82,7.25,35.57-.24,2.64-1.11,5.23-2.41,7.51h10.17v-43.08Z"/>
  </g>
</svg>