<?xml version="1.0" encoding="UTF-8"?>
<svg id="Capa_2" data-name="Capa 2" xmlns="http://www.w3.org/2000/svg" viewBox="0 0 248 248">
  <defs>
    <style>
      .cls-1 {
        fill: #58238c;
      }
    </style>
  </defs>
  <g id="Capa_1-2" data-name="Capa 1">
    <g>
      <path class="cls-1" d="M248,139.91v4.36c-6.87,6.31-10.37-6.93-15-10.17-1.93,21.58-10.33,42.41-23.74,59.29-1.51,1.91-7.73,9.42-9.53,9.83-2.33.54-5.27-.92-5.45-3.55-.18-2.65,5.41-7.4,7.24-9.67,12.01-14.89,20.04-31.97,22.76-51.06-3.03,2.16-4.42,8.44-9.06,6.89-2.33-.78-3-2.85-2.55-5.19.28-1.43,9.82-13.24,11.52-15.59,2.42-3.34,3.02-7.05,8.59-5.02l15.22,19.88Z"/>
      <path class="cls-1" d="M143.43,0c7.84,5.85-2.98,9.73-6.95,13.14-.52.45-1.16.49-.32,1.15,21.34,2.52,42.51,11.47,58.82,25.42,1.43,1.23,6.5,5.68,7.07,6.97,1.23,2.82-.62,6.02-3.67,6.02-2.35,0-7.53-5.93-9.7-7.66-14.73-11.78-32.19-19.92-51.06-22.28,2.25,2.91,9.67,5.28,8.5,9.68-.7,2.64-2.83,3.25-5.34,2.89l-20.57-14.78c-1.41-1.59-1.69-3.89-.3-5.59L141.01,0h2.42Z"/>
      <path class="cls-1" d="M168.14,75.01c13.05.32,23.87,11.5,24.19,24.49.06,2.46-1.72,8.42-1.49,9.57.04.22,2.7,2.16,3.41,3.01,9.71,11.59,6.47,27.77-6.07,35.58,2.09,12.67-3.91,23.81-16.64,26.89-1.07.26-2.68.01-3.42.45-.62.37-1.85,3.79-2.49,4.77-10.4,15.86-35.52,11.22-39.49-7.32.29-29.87-2.49-62.15-.64-91.87.47-7.49,2.92-13.53,9.06-18.05,12.34-9.09,30.55-2.35,33.59,12.48ZM159.88,75.99c-4-13.88-24.35-12.05-26.08,2.73l-.05,89.99c2.53,20.7,33.05,13.68,25.89-6.04-1.09-2.99-6.9-7.73-2.36-10.61,6.14-3.9,11.87,9.82,11.33,14.48,13.59-1.16,16.11-20.61,3.57-25.6-2.6-1.03-5.95-.65-7.69-1.99-3.51-2.72-1.11-7.18,2.91-7.31,6.22-.2,13.19,3.9,16.94,8.67,7.54-4.6,10.04-14.62,4.52-21.86-3.48-4.56-2.43-.79-4.88.28-3.57,1.56-7.16-1.18-5.97-4.98.4-1.28,3.27-3.77,4.24-5.94,6.9-15.37-8.46-30.28-23.28-22.79-2.83,1.43-6.94,6.81-10.15,2.78-4.17-5.23,7.01-10.78,11.05-11.81Z"/>
      <path class="cls-1" d="M78.96,174.85c-.24-.15-4.28-.5-5.63-.91-10.83-3.34-16.8-15.09-14.21-25.95-12.39-7.85-16.58-25.04-6.25-36.42.83-.91,3.08-1.96,3.34-2.98.15-.59-1.33-5.54-1.4-7.14-.52-12.3,7.32-22.37,18.89-25.68,1.17-.34,4.21-.52,4.85-.96.51-.35,1.06-2.88,1.51-3.81,10.39-21.11,40.03-14.91,41.59,10.56,1.78,29.3-.89,60.99-.63,90.43-4.39,20.1-30.23,23.73-40.73,6.12-.38-.64-1.12-3.13-1.34-3.26ZM78.07,166.54c-1.38-4.64,7.04-20.76,12.1-13.32,2.56,3.77-2.03,6.06-3.29,9.3-7.39,19.07,24.92,28.06,26.55,4.76,1.98-28.37-1.52-59.03-.03-87.64-1.38-15.41-21.05-17.86-26.61-3.88,3.51.73,12.79,5.68,12.58,9.64-.04.81-1.03,2.69-1.74,3.14-3.64,2.31-6.29-1.84-9.14-3.35-14.23-7.57-29.87,6.18-24.21,21.31,1.39,3.71,7.77,8.36,3.61,11.85-3.65,3.06-7.06-2.27-7.9-2.12-7.76,6.43-5.57,18.94,2.57,23.98.9.23,1.71-1.84,2.43-2.49,3.56-3.23,10.85-6.75,15.72-6.01,3.3.5,4.75,4.55,2.24,7.02-1.66,1.63-5.45,1.15-8.04,2.13-12.16,4.62-10.05,24.27,3.16,25.68Z"/>
      <path class="cls-1" d="M110.99,225.6c-2.17-3.18-10.19-5.63-8.99-10.16.74-2.8,3.14-3.33,5.74-2.8l19.92,14.93c1.5,2.69,1.12,4.26-.96,6.25-2.4,2.29-15.31,12.19-17.96,13.51-1.83.91-4.65,1.1-5.99-.65-4.02-5.25,7.58-9.64,10.17-12.83-18.75-1.74-36.98-8.33-52.44-18.97-2.88-1.98-14.91-11.08-15.94-13.59-1.33-3.23,1.2-6.77,4.47-5.97,1.91.47,6.91,5.88,8.97,7.53,15.45,12.36,33.25,20.18,53,22.76Z"/>
      <path class="cls-1" d="M21.92,111.83l6.57-8.67c3.54-3.33,8.25-.24,6.87,4.46l-14.93,19.92c-2.69,1.5-4.26,1.12-6.25-.96-2.29-2.4-12.19-15.31-13.51-17.96-.91-1.83-1.1-4.65.65-5.99,5.23-4.01,8.96,6.91,12.35,9.2,2.89-22.86,12.37-46.09,28.32-62.94,2.34-2.47,5.53-6.59,8.99-3.65,4.61,3.92-3.69,9.88-6.31,13.11-12.42,15.31-20.45,33.78-22.76,53.48Z"/>
      <path class="cls-1" d="M101.7,15.61c4.77-.4,6.59,4.96,2.69,7.57-6.27,1.06-12.45,4.42-18.72,4.32-2.71-1.44-3.27-5.38-.52-7.1,2.22-1.39,13.78-4.56,16.54-4.79Z"/>
      <path class="cls-1" d="M18.88,140.98c4.84-.47,5.25,7.49,6.18,11.03.8,3.06,4.81,10.94-.6,12.02-4.36.87-5.23-3.48-6.28-6.59-.79-2.33-3.27-10.95-3.04-12.89.21-1.73,2.02-3.41,3.74-3.57Z"/>
      <path class="cls-1" d="M185.9,205.35c3.58-.75,6.51,3.42,3.77,6.71-1.56,1.87-11.24,8.19-13.62,9.13-4.68,1.87-8.21-2.21-5.31-6.28l15.15-9.57Z"/>
      <path class="cls-1" d="M225.09,81c1.15,1.27,5.9,15.68,5.88,17.53-.04,4.05-5.85,5.85-7.78,2.04-2.14-4.24-2.66-11.66-5.22-16.13-.38-3.98,4.59-6.22,7.11-3.43Z"/>
      <path class="cls-1" d="M159.65,220.02c4.03.09,5.48,5.3,2.36,7.46-1.13.78-6.26,2.23-7.93,2.72-2.42.7-8.99,2.67-11.01,1.81-3.07-1.31-3.21-5.7-.3-7.31l16.88-4.68Z"/>
      <path class="cls-1" d="M205.26,53.36c1.55-.35,3.04-.18,4.26.86,1.42,1.2,9.26,12.84,9.7,14.52,1.03,3.99-3.44,7.18-6.82,3.9-.59-.57-8.94-12.65-9.3-13.45-.98-2.16-.34-5.26,2.16-5.83Z"/>
      <path class="cls-1" d="M71.65,26.26c4.1-1.08,7.45,2.76,4.75,6.2-2.38,3.02-11.28,6.15-14.32,9.39-5.88,1.4-8.06-3.78-3.33-7.68,1.85-1.53,10.98-7.4,12.9-7.91Z"/>
      <path class="cls-1" d="M35.14,190.11c-1.2-1.02-8.93-13.26-9.24-14.72-.91-4.32,3.6-7.18,6.87-3.97l9.29,14.95c.82,3.86-3.86,6.33-6.92,3.74Z"/>
    </g>
  </g>
</svg>