<?xml version="1.0" encoding="UTF-8"?>
<svg id="Capa_2" data-name="Capa 2" xmlns="http://www.w3.org/2000/svg" viewBox="0 0 250 248">
  <defs>
    <style>
      .cls-1 {
        fill: #f2a516;
      }
    </style>
  </defs>
  <g id="Capa_1-2" data-name="Capa 1">
    <g>
      <path class="cls-1" d="M109.17,138.85h25.72c-4.64-12.7,1.02-27.26,14.53-30.99,19.33-5.35,34.38,12.72,27.65,30.99h30.6c1.51,0,3.15,3.37,2.85,4.87-1.77,29.41,2.29,61.47,0,90.57-.49,6.17-3.19,10.81-9.17,12.95-62.41,1.55-125.1.19-187.62.68-5.86-.03-11.19-3.59-12.86-9.26C-.88,176.46.64,113.95.1,51.64c.54-7.22,3.6-12.22,11.08-13.61l95.92.27c1.13.87,2.06,2.1,2.08,3.58-.82,11.61,1.05,24.6.01,36.04-.23,2.53-1.47,4.64-4.35,4.35-1.56-.16-4.13-2.93-6.02-3.8-12.31-5.63-25.31,5.63-21.06,18.49,2.98,9.01,13.57,13.22,21.9,8.47,2.4-1.37,3.98-4.41,7.44-2.83.47.21,2.06,2.24,2.06,2.56v33.69ZM101.45,45.23H12.21c-1.37,0-4.37,3.01-4.37,4.37v89.24h34.21c.33,0,2.35,1.59,2.56,2.06,1.51,3.31-2.31,5.65-3.61,8.72-5.1,12.02,5.21,24.21,17.77,20.85,9.58-2.56,14.22-13.43,9.27-22.13-1.47-2.59-5.31-4.86-2.6-8.23.24-.29,1.62-1.27,1.81-1.27h34.21v-25.72c-20.81,8.21-40.34-13.79-28.39-33.28,5.65-9.22,18.54-13.16,28.39-8.39v-26.23ZM202.78,146.56h-34.21c-1.25,0-2.75-2.55-2.75-3.86,0-2.44,4.33-5.73,4.95-9.38,4.42-26.33-35.79-23.14-29.47.4.87,3.25,4.89,7.11,4.85,8.99-.03,1.46-1.91,3.85-3.29,3.85h-33.69v25.72c16.8-6.05,33.21,5.28,31.91,23.43-1.09,15.19-18.24,24.87-31.91,18.24v26.23h89.76c1.03,0,3.86-2.83,3.86-3.86v-89.76ZM34.07,146.56H7.84v89.76c0,.89,2.82,3.86,3.86,3.86h89.76v-34.21c0-.29,1.16-1.77,1.55-2.05,3.26-2.3,5.24.95,7.88,2.39,14.38,7.87,29.08-8.09,20.1-21.64-4.32-6.52-13.15-8.36-19.91-4.58-1.81,1.01-3.76,3.49-5.77,3.44-1.46-.03-3.85-1.9-3.85-3.29v-33.69h-25.72c6.15,16.27-5.19,33.15-22.91,31.91-15.51-1.08-25.2-17.84-18.75-31.91Z"/>
      <path class="cls-1" d="M246.84,29.47c2.06,2.07,2.8,4.96,3.16,7.79-8.06,24.04-18.65,47.3-27.56,71.09-.62,1.36-2,2.2-3.46,2.25-10.05-3.39-20.1-7.47-29.8-11.89-3.18-5.51,3.16-5.95,5.6-9.27,6.97-9.46-3.32-21.89-14.06-16.63-4.65,2.28-6.17,6.89-5.71,11.78.29,3.1,2.59,6.05-2.36,7.45l-30.69-12.46-.26-3.61,8.11-20.44c-13.05-.52-21.3-12.95-16.86-25.35,3.63-10.11,15.67-14.52,25.27-10.07,1.83.85,3.13,2.38,4.95,2.5l7.85-20.19c.98-1.8,2.9-3.01,4.91-2.1,13.53,5.63,27.27,10.77,40.86,16.24,5.77,2.32,26.8,9.66,30.04,12.91ZM217.18,101.81l25.19-64.6-.77-2.25-64.8-26.18c-1.36.14-8.15,23.51-10.84,25.08-4.76,2.76-5.86-3.6-8.98-5.82-9.09-6.48-20.6,2.21-17.19,12.56,1.78,5.39,6.9,7.78,12.35,7.21,3.26-.34,5.92-2.74,7.44,2.36l-9.21,25.37,16.93,6.73c.19-15.28,18-23.8,30.08-14.39,8.21,6.4,9.74,19.37,2.34,26.99l17.47,6.94Z"/>
    </g>
  </g>
</svg>