<?xml version="1.0" encoding="UTF-8"?>
<svg id="Capa_2" data-name="Capa 2" xmlns="http://www.w3.org/2000/svg" viewBox="0 0 359.66 240.04">
  <defs>
    <style>
      .cls-1 {
        fill: #fff;
      }

      .cls-2 {
        fill: none;
        stroke: #fff;
        stroke-miterlimit: 10;
        stroke-width: 12px;
      }
    </style>
  </defs>
  <g id="Capa_1-2" data-name="Capa 1">
    <g>
      <path class="cls-1" d="M35.52,133.72c.27-2.69,1.7-7.86,2.52-10.62,5.26-17.79,19.27-33.62,36.63-40.28.67-.91-4.21-3.98-5.04-4.74C42.49,53.06,54.58,7.55,90.86.86c44.66-8.23,71.82,46.95,37.51,77.77-.89.8-4.19,2.77-4.48,3.35-.43.87.39.77.71.95,1.96,1.16,6.78,2.73,7.95,4.36,2.38,3.3.97,8.16-3.05,9.24-3.46.93-8.56-2.79-12.18-4.07-22.55-8-47.41-.29-60.99,19.26-10.07,14.48-10.05,30.07-9.61,47.16h70.75c.51,0,3.38,1.19,3.93,1.66,3.67,3.15,1.62,9.08-2.85,10.05l-78.28.04c-2.32-.02-3.42-1.81-4.74-3.37.8-10.74-1.07-23,0-33.56ZM94.68,11.95c-40.73,4.91-35.55,68.26,6.55,65.83,44.2-2.55,39.21-71.34-6.55-65.83Z"/>
      <path class="cls-1" d="M202.75,151.61c17.57,6.34,32.16,22.81,37.31,40.71,4.07,14.16,2.09,29.74,2.11,44.29l-3.72,3c-38.96.87-78.08.1-117.1.39-2.69.13-6.08-2.04-6.44-4.75.58-14.45-1.61-28.89,2.43-42.93,5.15-17.9,19.7-34.41,37.31-40.71-21.08-14.6-27.43-42.53-12.2-63.93,17.53-24.63,54.51-24.76,72.26-.32,15.55,21.41,9.22,49.53-11.96,64.25ZM176.35,80.76c-47.06,3.67-35.67,76.33,10.62,64.87,38.45-9.53,28.94-67.95-10.62-64.87ZM231.27,228.24c.67-18.84.28-36.11-12.32-51.16-22.05-26.32-62.44-24.63-82.65,2.88-10.79,14.68-10.65,30.7-10.17,48.27h105.14Z"/>
      <path class="cls-1" d="M310.68,158.89c.45-17.01.42-32.73-9.61-47.16-13.49-19.4-38.14-27.18-60.59-19.41-2.63.91-8.67,4.44-10.63,4.52-5.11.22-8.17-5.95-4.76-9.85,1.26-1.44,5.78-2.92,7.7-4.05.32-.19,1.14-.08.71-.95-.29-.58-3.59-2.56-4.48-3.35-25.3-22.72-18.61-64.36,13.7-75.8,45.9-16.26,81.06,41.07,45.33,74.97-.86.81-5.98,4.12-5.33,5.01,17.51,6.77,31.57,22.71,36.75,40.71,4.02,13.97,1.91,28.48,2.36,42.87-.35,2.19-2.47,4.15-4.71,4.24l-78.28-.04c-4.47-.97-6.52-6.9-2.85-10.05.55-.47,3.42-1.66,3.93-1.66h70.75ZM253.51,11.95c-40.44,4.64-35.97,68.28,6.55,65.83,43.75-2.53,39.55-71.12-6.55-65.83Z"/>
      <polyline class="cls-2" points="295.77 33.05 353.66 33.05 353.66 212.75 239.83 212.75"/>
      <polyline class="cls-2" points="120.61 212.75 6 212.75 6 33.05 58.45 33.05"/>
      <line class="cls-2" x1="135.36" y1="33.05" x2="222.36" y2="33.05"/>
    </g>
  </g>
</svg>