<?xml version="1.0" encoding="UTF-8"?>
<svg id="Capa_2" data-name="Capa 2" xmlns="http://www.w3.org/2000/svg" viewBox="0 0 119.89 119.6">
  <defs>
    <style>
      .cls-1 {
        fill: #fff;
      }
    </style>
  </defs>
  <g id="Capa_1-2" data-name="Capa 1">
    <g>
      <path class="cls-1" d="M54.6.16c51.18-3.6,83.91,52.98,53.72,94.8-29.19,40.45-92.83,28.99-106.15-18.99C-7.74,40.32,17.45,2.77,54.6.16ZM58.9,9.36C18.48,10.08-4.89,56.27,18.8,89.22c20.87,29.04,64.5,27.77,83.66-2.41,21.51-33.87-3.6-78.17-43.56-77.45Z"/>
      <path class="cls-1" d="M50.63,69.02v15.08c0,.18-.71,1.44-.9,1.68-2.42,2.99-7.56,1.77-8.26-2l-.04-47.38c.07-2.18,1.72-3.93,3.89-4.15,12.57.95,27.54-4.05,35.13,9.11,5.31,9.19,1.71,20.72-7.4,25.79l9.39,13.58c1.87,5.11-3.21,8.72-7.54,5.53l-12.06-17.24h-12.21ZM50.63,59.83h13.93c11.81,0,11.42-18.39.29-18.39h-14.22v18.39Z"/>
    </g>
  </g>
</svg>