<?xml version="1.0" encoding="UTF-8"?>
<svg id="Capa_2" data-name="Capa 2" xmlns="http://www.w3.org/2000/svg" viewBox="0 0 236.36 229.77">
  <defs>
    <style>
      .cls-1 {
        fill: #dd7c9c;
      }
    </style>
  </defs>
  <g id="Capa_1-2" data-name="Capa 1">
    <g>
      <path class="cls-1" d="M236.36,95.46c-5.74,18.96-9.17,38.63-14.53,57.69-3.48,12.36-9.74,23.8-18.46,33.23-9.41,10.19-22.09,17.16-33.03,25.57-1.03,1.41-.12,8.09-.54,10.54-.7,4.11-4.82,7.07-8.87,7.28h-85.41c-4.28-.24-8.34-3.35-8.94-7.67-.35-2.56.6-8.36-.47-10.14-13.48-10.05-27.71-18.03-38.06-31.63C10.17,156.85,9.31,122.61.2,95.11c-2.65-18.84,21.46-26.22,29.96-8.73l13.74,36.58c2.32-.35,4.23-1.53,6.7-1.67,2.49-.14,4.73.38,7.02,1.32,18.81,13.39,44.69,23.26,57.1,43.5,1.13,1.84,1.85,4.07,2.93,5.83.2.32-.1.82.8.6.35-.09,2.69-5.48,3.27-6.43,12.39-20.25,38.3-30.08,57.1-43.5,2.29-.94,4.53-1.46,7.02-1.32,2.47.14,4.38,1.32,6.7,1.67l13.74-36.58c6.98-14.36,25.38-12.73,30.08,2.16v6.92ZM113.14,220.06c-.02-7,.04-14.01-.02-21.02-.16-18.27-4.94-31.51-20.14-42.58-12.43-9.05-26.88-16.81-39.8-25.27-5.81-1.4-9.98,5.34-5.59,9.74l23.29,18.25c3.35,4.79-1.11,9.72-6.37,7.29-9.66-10.52-32.51-17.5-27.72-35.04-5.01-12.14-8.75-24.87-13.76-37-1.82-4.4-3.31-9.32-9.24-8.08-2.75.57-4.43,3.31-4.38,6.01,9.41,27.8,9.38,63.25,29.41,85.96,10.37,11.75,24.88,18.86,36.58,28.95,0,.76.81,2.39.81,2.88v9.92h36.92ZM160.21,220.06v-10.38c0-.57,1-2.95,1.62-3.46,21.85-15.3,42.23-27.17,50.4-54.35,5.82-19.36,9.09-40.05,14.79-59.51.05-2.69-1.62-5.44-4.38-6.01-5.93-1.23-7.42,3.69-9.24,8.08-5.01,12.13-8.75,24.86-13.76,37,4.85,17.53-18.09,24.53-27.72,35.04-5.26,2.43-9.72-2.51-6.37-7.29l23.29-18.25c4.39-4.4.22-11.13-5.59-9.74-12.87,8.51-27.4,16.19-39.8,25.27-15.06,11.02-20.03,24.43-20.14,42.58-.04,7,0,14.02-.02,21.02h36.92Z"/>
      <path class="cls-1" d="M52.46,99.62c-2.69-.55-6.2-4.43-6.58-7.26.49-9.55-1.04-20.5-.11-29.88.83-8.35,8.31-17.05,16.61-18.7-12.69-14.32-6.58-37.31,12-42.68,19.22-5.55,36.65,10.81,33.23,30.22,6.82-2.95,14.4-2.95,21.22,0-3.36-19.01,13.2-35.07,32.14-30.52,19.31,4.64,26.08,28.35,13.09,42.97,8.17,1.62,15.6,10.08,16.56,18.28.71,6.07.82,23.97,0,29.91-.31,2.27-1.85,4.68-3.68,6.01-.36.26-2.8,1.64-2.97,1.64h-29.3v20.07c0,2.21-1.78,5.63-3.53,7.08-3.79,3.15-15.94,4.44-16.69-2.13-.2-1.76,1.82-5.18,3.38-5.18h7.15v-26.07c0-4.21-5.19-9.99-9.13-11.18-4.57-1.38-26.01-1.04-31.73-.61-5.66.42-12.67,5.78-12.67,11.79v26.07h7.15c1.11,0,3.19,2.81,3.37,4.04,1.1,7.6-12.57,6.68-16.68,3.27-1.75-1.46-3.53-4.87-3.53-7.08v-20.07h-29.3ZM78.89,9.75c-19.45,2.84-17.33,33.79,3.55,33.11,22.45-.73,20.46-36.61-3.55-33.11ZM151.8,9.75c-19.86,2.72-17.23,34,3.55,33.11,22.35-.95,20.28-36.38-3.55-33.11ZM115.8,38.82c-23.26,3.16-15.18,40.24,8.08,32.08,18.39-6.45,11.74-34.77-8.08-32.08ZM92.38,52.55h-27c-4.66,0-10.38,8.22-10.38,12.69v25.15h27.69c1.1-8.76,7.84-14.74,15.69-17.77-4.2-5.62-7.57-12.95-6-20.07ZM181.44,90.39v-25.15c0-4.47-5.73-12.69-10.38-12.69h-27c1.48,7.2-1.71,14.46-6,20.07,7.85,3.04,14.59,9.02,15.69,17.77h27.69Z"/>
      <path class="cls-1" d="M117.18,119.56c7.34-1.19,7.27,8.82,1.61,9.51-5.66.69-7.53-8.55-1.61-9.51Z"/>
    </g>
  </g>
</svg>