<?xml version="1.0" encoding="UTF-8"?>
<svg id="Capa_2" data-name="Capa 2" xmlns="http://www.w3.org/2000/svg" viewBox="0 0 219 229.77">
  <defs>
    <style>
      .cls-1 {
        fill: #c52628;
      }
    </style>
  </defs>
  <g id="Capa_1-2" data-name="Capa 1">
    <g>
      <path class="cls-1" d="M217.73,77.76c4.3,4.3-4.33,8.67-6.98,11.55-13.26,14.41-13.21,37.03.22,51.35,2.52,2.68,11.37,7.32,6.71,11.47-1.51,1.35-8.12,1.07-10.87,1.55-23.42,4.12-36.3,29.28-28.09,51.2-2.96,7.96-9.72.05-14.67-2.01-17.25-7.19-37.17-.89-46.85,15.03-1.45,2.39-4.19,10.67-5.84,11.36-5.22,2.19-5.61-3.21-7.07-6.28-11.09-23.3-37.4-30.49-58.34-14.7-9.48.77-3.84-8.21-3.38-13.41,1.95-21.73-12.72-39.21-34.16-41.79-3.16-.38-8.61,1.21-8.39-4.06.12-2.87,6.4-6.63,8.62-9.1,12.73-14.17,12.56-36.3-.22-50.4-2.73-3.01-11.56-7.44-7.24-11.77,1.87-1.88,4.44-.84,6.75-1.13,21.71-2.69,36.63-19.5,34.63-41.79-.24-2.72-2.49-8.2-2.37-10.01.08-1.27,1.65-3.02,2.83-3.4,3.08-.98,7.62,3.5,10.84,4.97,17.24,7.88,38.18,1.68,47.85-14.6,1.47-2.48,4.19-10.93,6.16-11.51,5.12-1.52,5.18,3.08,6.6,6.1,9.18,19.48,29.67,29.31,50.24,20.16,2.58-1.15,6.65-4.61,8.25-5.13,2.4-.78,5.59.86,5.75,3.4.11,1.81-2.13,7.29-2.37,10.01-1.75,19.48,10.88,37.81,30.47,41.18,2.85.49,9.34.17,10.92,1.74ZM50.69,34.36c.15,3.16,0,6.39,0,9.55,0,1.4-1.45,6.88-1.94,8.57-4.59,15.68-18.84,28.3-34.84,31.33,16.16,17.26,16.16,44.84,0,62.09,16.12,3.07,30.18,15.57,34.84,31.33.55,1.86,1.94,6.92,1.94,8.57v9.55s-1.15,1.14.23.71c2.63-.82,5.16-2.24,8.07-2.92,17.07-3.97,34.08,1.75,45.45,14.87l5.24,7.17c10.45-18.77,31.78-27.21,52.53-21.47,1.95.54,4.02,1.81,5.77,2.35,1.38.43.23-.67.23-.71v-9.55c0-1.75,1.53-7.38,2.14-9.32,4.8-15.27,18.88-27.7,34.64-30.58-15.24-16.54-16.17-40.9-2.78-58.91.86-1.15,2.03-1.97,2.78-3.18-16.11-3.1-30.17-15.55-34.84-31.33-.55-1.86-1.94-6.92-1.94-8.57v-9.55s1.15-1.14-.23-.71c-2.63.82-5.16,2.24-8.07,2.92-17.04,3.97-34.06-1.81-45.45-14.87l-5.24-7.17c-9.81,17.83-30.35,26.67-50.23,22.04-2.91-.68-5.44-2.1-8.07-2.92-1.38-.43-.23.67-.23.71Z"/>
      <path class="cls-1" d="M105.05,40.95c58.02-3.51,97.43,59.11,68.97,110.06-26.26,47.01-92.82,50.88-124.48,7.27-34.33-47.28-2.39-113.83,55.51-117.33ZM104.1,49.07c-50.07,3.84-77.76,61.62-49.02,103.2,26.57,38.44,83.77,37.88,109.51-1.15,30.26-45.88-5.96-106.24-60.49-102.05Z"/>
      <path class="cls-1" d="M130.47,87.14l2.85-5.5c1.79-1.9,4.68-1.5,6.23.48l2.37,5.02c1.05-3.15.79-12.53,4.28-13.64,2.79-.89,5.41.85,5.59,3.76-1.5,7.24-2.26,14.69-3.81,21.92-.39,1.82-.53,4.36-2.06,5.58-5.49,4.38-8.01-5.89-9.26-9.49-2.91,2.36-2.87,10.78-7.84,10.5-2.8-.15-3.43-2.47-3.96-4.68-1.39-5.85-3.43-16.05-3.9-21.89-.21-2.54-.06-5.5,3.09-5.9,6.32-.81,5.22,9.78,6.41,13.84Z"/>
      <path class="cls-1" d="M84.13,88.58v-12.66c0-2.67,6.71-4.4,7.92.68.77,3.25.67,20.88.22,24.65-.42,3.46-3.28,5.81-6.46,3.57-3.68-2.59-7.1-11.07-10.75-14.33v11.23c0,.14-1,2.36-1.21,2.61-1.96,2.3-5.85,1.56-6.78-1.3.34-8.24-.89-17.6-.15-25.7.26-2.89,1.89-4.61,4.93-3.94,3.31.73,9.08,12.87,12.29,15.19Z"/>
      <path class="cls-1" d="M104.19,81.41v3.82h11.7c1.33,0,3.44,2.19,3.58,3.63.13,1.34-1.29,4.49-2.63,4.49h-12.66v4.3h12.18c.13,0,1.95,1.02,2.17,1.3,2.35,2.88.2,6.31-3.17,6.78-2.7.38-13.53.42-15.99-.16-2.57-.6-3.11-2.43-3.33-4.79-.5-5.4-.62-18.18,0-23.44.22-1.86,1.59-3.81,3.57-4.08,2.14-.28,15.93-.28,17.49.24,3.77,1.24,2.39,7.91-1.22,7.91h-11.7Z"/>
      <path class="cls-1" d="M93.2,123.45v3.82h11.23c.14,0,2.37,1,2.61,1.21,2.1,1.83.55,6.91-1.66,6.91h-12.18v4.3h12.18c2.52,0,4.69,6.95-.59,8.01-2.51.51-13.41.46-16.1.08-1.96-.28-3.39-1.52-3.64-3.53-.63-5.16-.59-20.15.01-25.35.25-2.2,1.37-3.33,3.58-3.58,2.45-.28,15.1-.35,17,.22,4.38,1.33,2.17,7.91-1.22,7.91h-11.23Z"/>
      <path class="cls-1" d="M151.97,144.24c-.8,4.51-7.37,4.58-8.09-.03-.62-3.9-.61-21.83,0-25.74.3-1.95,1.66-2.93,3.54-3.14,2.32-.27,8.57-.25,10.79.22,7.2,1.53,9.99,11.15,5.22,16.73-.63.74-2.4,1.8-2.41,1.95-.16,2.44,8.22,9.08,3.49,12.64-6.2,4.67-8.85-8.49-12.54-11-.31,2.54.42,5.96,0,8.36ZM151.96,127.76c7.89,1.31,7.88-5.62,0-4.3v4.3Z"/>
      <path class="cls-1" d="M124.6,115.44c1.71-.39,4.15-.3,5.02,1.46l13.07,26.14c.98,3.59-3.22,6.16-6.28,4.33-2.28-1.36-2.82-7.84-5.67-8.18-1.26-.15-9.7-.11-10.3.26-.87.53-2.55,5.65-3.6,6.91-2.82,3.41-8.49.84-7.02-3.67,2.65-8.1,9.91-17.48,12.91-25.8.37-.81,1.02-1.27,1.88-1.46Z"/>
      <path class="cls-1" d="M55.81,114.94c4.14-.86,7.54,6.87,9.93,9.47,1.75.44,7.29-14.19,12.44-8.15,1.55,1.82,1.2,3.14.22,5.06-1.43,2.81-7.92,9.5-8.51,11.55-1,3.48,1.81,13.61-2.35,14.85-8.4,2.5-4.34-10.82-5.5-14.85-1.67-3.03-9.65-11.3-9.35-14.32.14-1.48,1.61-3.3,3.12-3.61Z"/>
    </g>
  </g>
</svg>