<?xml version="1.0" encoding="UTF-8"?>
<svg id="Capa_2" data-name="Capa 2" xmlns="http://www.w3.org/2000/svg" viewBox="0 0 227.2 229.77">
  <defs>
    <style>
      .cls-1 {
        fill: #0396a6;
      }
    </style>
  </defs>
  <g id="Capa_1-2" data-name="Capa 1">
    <g>
      <path class="cls-1" d="M35.98,0c7.53,4.28,12.57,11.88,18.98,17.44,5.93-5.89,11.39-13.25,18.65-17.44h5.82c5.18,2.4,8.96,8.05,12.19,12.67,18.28,26.08,27.35,57.62,3.27,83.65-2.02,2.18-6.21,4.51-6.07,7.36.54,10.75,21.55,28.13,28.91,36.52,4.72,5.39,9.37,11.14,12.77,17.48,1.05.7,4.15-9.25,4.34-10.21,2.23-11.44-5.88-26.5-7.42-38.45-4.28-33.14,17.29-61.93,51.24-63.77,28.9-1.57,53.87,24.31,47.57,53.39-2.98,13.73-17.76,28.58-32.34,28.58h-6.5c2.01,9.44,6.52,18.1,9.18,27.33,4,13.85,4.17,24.57-.78,38.19-1.17,3.22-5.95,14.03-8.37,15.82-3.22,2.39-6.76-.66-4.9-4.9,5.71-13.03,11.67-20.18,9.79-35.89-1.73-14.48-10.02-27.74-12.63-42.02l-7.07-4.35c8.41,28.38,7.86,61.56-7.88,87.31-1.23,2.02-7.46,11.33-8.9,12.15-2.41,1.38-5.42-.12-5.42-2.93,0-1.89,8.53-13.05,10.18-16.05,9.82-17.79,11.99-41.01,9.27-60.94-2.19-16.1-14.4-38.85-7.49-54.2,1.76-3.92,4.73-6.59,7.55-9.69-9.32.66-18.09,7.73-19.21,17.29-1.1,9.34,6.29,21.02,8.52,30.35,6.02,25.19-6.29,42.29-16.61,63.7,1.05,11.35,2.92,22.89.87,34.24h15.45c6.17,0,9.2-3.04,13.69-6.02,3.83-2.54,7.56.06,5.9,4.11-1.5,3.66-12.47,8.39-16.46,8.62l-92.62-.1c-3.43-1.21-5.36-4.17-5.7-7.74-.15-1.62.54-5,.37-5.73-.14-.59-3.37-4.33-4.06-5.37l-5.28-8.39v14.11c0,5.74-5.75,12.39-11.46,13.18-10.25,1.4-23.42-.95-33.98.02-2.12-.61-4.25-2.38-4.87-4.53-.52-1.81-.57-8.49-.27-10.42,1.26-8.06,13.04-6.21,18.79-6.97-.22-6.93.29-13.92.02-20.85-.62-16.03-6.31-32.16-5.41-47.93.08-1.41.3-4.51.56-5.71.58-2.65,3.91-3.9,6.04-1.97,2.04,1.87.62,5.04.57,7.23-.26,12.58,2.36,21.27,3.98,33.24,1.8,13.29.68,26.81.94,40.21-.1.68-.35,1.35-.88,1.81-2.41,2.06-13.48.88-17.02,1.8-1.38.82-1.17,7.4-.22,7.4h29.56c2.99,0,6.24-3.53,6.46-6.53,1.44-20.04-1.78-42.49.02-62.25.43-4.66,5.24-5.25,6.89-1.03,1.49,9.5-1.03,21.27.4,30.5.5,3.21,4.05,10.92,5.64,14.07,2.32,4.61,5.37,8.8,8.19,13.1,4.85-1.31,10.14-1.42,15.18-1.76-7.59-14-12.34-32.36-5.76-47.64,6.25-14.5,20.33-18.64,34.42-12.15,1.72.79,3.51,2.71,5.38,2.68-5.85-7.97-13.46-14.32-20.17-21.49-4.39-4.69-10.22-10.79-13.06-16.51-.54-1.08-2.48-6.94-2.85-7.02-12.36,6.58-25.89,8.75-39.63,5.6-4.34-.99-8.33-2.9-12.54-4.26-.1,3.57.02,15.14-6.16,12.65-.45-.18-1.49-1.04-1.68-1.46-1.25-2.78,2.16-11.46,1.02-15.36-.17-.59-7.72-6.82-9.1-8.37C-8.09,70.75-1.11,41.89,15.18,16.61,18.97,10.73,23.92,3.25,30.15,0h5.82ZM78.85,7.75c-.46-.37-2.14-.96-2.72-.91-1.83.15-9.91,8.73-11.72,10.63-1.62,1.7-6.12,7.7-7.58,8.54-1.21.69-2.88.69-4.08,0-1.7-.98-6.64-7.52-8.48-9.44-2.22-2.3-7.44-8.08-9.98-9.29-3.33-1.59-7.56,5.28-9.43,7.81C10.49,34.57-.03,59.59,13.22,82.56c17.39,30.15,59.56,32.17,80.28,4.3,17.11-23.01,6.89-49.5-7.88-70.43-1.41-2-5.13-7.37-6.76-8.69ZM139.46,177.39c.97-.72,1.71-2.22,2.31-3.28,7.58-13.44,13.95-28.01,11.45-43.85-2.67-16.91-16.56-30.21-5.44-47.79,6.67-10.54,19.78-14.1,31.64-12,3.29.58,11.76,2.34,8.42,7.26-1.54,2.26-2.65,1.22-4.65,1.62-27.19,5.49-16.87,43.12,10.24,40.7,19.6-1.74,29.97-21,25.37-39.25-11-43.65-77.06-34.54-84.14,10.94-3.84,24.67,13.97,42.6,4.43,65.35-.69,1.63-4.08,7.43-4.08,8.43,0,2.04,4.75,8.92,4.45,11.87ZM96.33,153.31c-3.79.59-8.12,4.15-10.11,7.36-7.06,11.4-3.83,27.81,1.19,39.42,1.31,3.04,6.19,10.06,5.36,12.82-.26.87-1.61,1.77-2.48,2l-18.96,2.1c-.76.52-.47,4.17-.22,5.21l64.73-.28c.94-.71,1.29-4.44,1.39-5.78.74-10.65-1.23-23.12-5.05-33.06-5.34-13.9-18.91-32.41-35.85-29.79Z"/>
      <path class="cls-1" d="M46.73,75.26c2.76,3.72-2.15,7.54-4.97,9.59-6.36,4.63-17.08,7.55-23.04.71-5.01-5.75-3.31-15.07,3.64-18.32,2.8-1.31,8.71-2.1,8.7,2.41s-6.21,2.37-7.75,6.16c-2.79,6.91,5.39,7.29,10.09,5.61,4.16-1.49,5.85-4.5,9.28-6.63-1-1.55-2.4-3.05-2.21-5.08,3.03-9.25,3.97-21.02,7.26-29.96,1.26-3.43,3.21-4.4,6.82-4.4,3.35,0,5.68.59,6.96,3.81,3.56,8.93,4.34,21.28,7.49,30.6.05,1.71-.9,3.28-2.12,4.37v.65c3.45,2.12,4.81,4.95,8.95,6.5,4.51,1.69,12.68,1.69,10.54-5.17-1.25-4.01-7.91-1.75-7.91-6.47,0-4.61,6.15-3.75,8.98-2.21,6.75,3.68,8.45,12.62,3.18,18.35-6.58,7.15-18.58,3.05-24.86-2.49-2.45-2.16-5.32-4.74-2.92-8.05h-16.13ZM48.07,68.09h13.44c-1.67-2.89-5.25-25.13-6.5-25.54-.9-.29-.89,1.04-1.07,1.6-2.4,7.6-3.46,16.25-5.87,23.93Z"/>
      <path class="cls-1" d="M26.94,30.12c20.57-.82,22.34,30.32,2.09,32.14-21.63,1.94-23.72-31.28-2.09-32.14ZM26.47,37.28c-11.39,1.24-10.09,19.45,2.52,17.77,11.06-1.47,9.25-19.06-2.52-17.77Z"/>
      <path class="cls-1" d="M70.63,57.63c-15.01-15.01,8.03-37.79,22.86-22.64,14.55,14.87-7.96,37.54-22.86,22.64ZM80.66,37.28c-11.41,1.62-9.38,19.91,3.37,17.7,10.55-1.82,8.37-19.37-3.37-17.7Z"/>
      <path class="cls-1" d="M46.6,84.75c4.01-.88,5.33,5.26,11,2.5,1.85-.9,4.2-4.88,6.98-1.4,2.04,2.56.35,4.46-1.72,6.21-4.8,4.04-12.8,3.9-17.24-.68-2.12-2.18-2.3-5.91.99-6.62Z"/>
      <path class="cls-1" d="M26.44,40.86c2.32-.53,4.2.45,4.58,2.84.57,3.57.67,10.23-4.58,9.07-3.57-.79-3.8-11.05,0-11.91Z"/>
      <path class="cls-1" d="M80.64,40.85c7.93-2.4,6.12,16.25-.75,11.32-2.11-1.51-2.29-10.4.75-11.32Z"/>
    </g>
  </g>
</svg>