<?xml version="1.0" encoding="UTF-8"?>
<svg id="Capa_2" data-name="Capa 2" xmlns="http://www.w3.org/2000/svg" viewBox="0 0 229.9 229.77">
  <defs>
    <style>
      .cls-1 {
        fill: #2476b6;
      }
    </style>
  </defs>
  <g id="Capa_1-2" data-name="Capa 1">
    <g>
      <path class="cls-1" d="M52.28,229.77c-2.33-1.59-2.92-2.79-3.16-5.59l.04-71.29c-.15-.57-4.46-.25-4.98-4.07l.05-47.07C17.48,92.98-2.37,64.63.23,36.2c1.43-15.66,24.99-15.52,26.89-.84,1.65,12.74.55,19.55,9.89,30.03,4.82,5.41,12.58,10.54,19.74,11.21-9.73-16.68,2.97-40.02,23.33-35.44,14.48,3.26,19.91,17.84,16.02,31.28l-1.89,4.84c15.59-3.08,27.9-15.93,30.22-31.68,1.05-7.15-.96-13.77,5.92-18.75,7.7-5.58,18.87-1.81,21.21,7.43,1.71,6.75-.77,22.8-3.88,29.2-1.19,2.46-3.54,3.46-6.14,2.36-4.82-2.03-1.74-6.96-.94-10.36,1.11-4.69,2.75-12.31,2.28-17.01-.4-4-4.16-6.68-7.41-3.82-1.8,1.58-1.24,8.03-1.56,10.55-2.79,21.85-20.36,40.42-42.81,41.96-25.8,1.77-52.45,1.48-66.7-23.49-5.42-9.49-5.19-14.4-6.21-24.74-.75-7.59-8.74-6.79-8.98.02-.75,21.1,13.16,42.58,31.92,51.5,2.32,1.11,12.06,3.8,12.06,6.33v46.42h30.05c-1.36-4.29-3.05-8.46-3.9-12.92-.93-4.88-2-13.85-.83-18.5,2.57-10.2,15.49-13.65,22.91-6.28,5.04,5.01,3.38,11.37,4.3,17.68,2.11,14.53,14.14,27.81,28.46,31.2,1.59.38-.17-1.51-.34-1.91-7.24-17.18,3.56-37.25,23.43-34.2,14.66,2.25,21.08,18.48,16.78,31.63-.51,1.55-1.57,2.78-2,3.84-.27.66.11.71.67.67,8.18-.47,18.96-9.02,23.47-15.57,6.35-9.21,5.6-15.13,6.82-25.48,1.77-15.08,23.37-15.8,26.91-1.13v12.11c-.73,3.02-1.07,6.13-1.83,9.16-5.43,21.55-22.02,38.69-42.81,46l-.24,29.81c-2.07,5.51-8.6,4.68-9.34-1.37-.86-6.98-.71-23.74-.07-30.92.57-6.48,6.35-6.16,11.39-8.34,20.63-8.94,33.65-29.22,33.97-51.74.1-7.5-8.11-8.22-8.96-1.29-.51,4.14-.06,7.54-1.01,12-7.4,34.75-39.7,38.94-69.71,37.08-23.43-1.45-42.09-18.74-45-42.02-.48-3.86,1.03-12.51-5.17-11.82-2.71.3-3.68,2.71-3.87,5.13-1.66,20.84,13.52,42.87,31.77,51.7,2.55,1.23,8.98,2.98,10.58,4.22.42.33,1.63,2.13,1.63,2.41v52.03c0,.92-2.05,2.65-2.69,3.36h-3.59c-2.15-1.4-2.88-3.08-3.13-5.61l-.08-44.78c-.36-1.05-8.24-3.44-9.65-4.71l-10.46-6.81v58.54c0,.92-2.05,2.65-2.69,3.36h-3.59c-2.33-1.59-2.92-2.79-3.16-5.59l.04-65.52c-.1-.89-3.47-6.04-3.83-6.04h-29.83v73.79c0,.92-2.05,2.65-2.69,3.36h-3.59ZM73.7,50.02c-16.6,2.16-13.44,31.65,4.71,27.58,8.37-1.88,10.3-10,9.27-17.56-.88-6.41-7.72-10.83-13.98-10.01ZM150.39,127.61c-12.5,2.1-13.08,25.36.9,27.59,6.28,1,13.55-3.56,14.43-10.02,1.44-10.5-3.64-19.53-15.33-17.57Z"/>
      <path class="cls-1" d="M77.4,229.77h-3.59c-2.11-1.5-2.87-2.54-3.13-5.16,1.03-16.55-1.4-34.8-.02-51.14.64-7.57,8.83-7.47,9.46-.9,1.61,16.71-1.26,35.98-.01,52.96-.1,2.03-1.4,2.99-2.7,4.25Z"/>
      <path class="cls-1" d="M229.9,55.73v3.59c-1.62,3.42-8.16,3.2-11.41,2.66-4.25-.7-4.45-8.37.41-8.96,3.4-.42,9.27-.73,11.01,2.71Z"/>
      <path class="cls-1" d="M182.36,229.77h-3.59c-4.43-2.44-3.4-9.26,2.03-9.02,4.92.22,5.59,6.62,1.56,9.02Z"/>
      <path class="cls-1" d="M124.38,82.28c4.57-.87,7.52,4.56,3.46,8.42-4,3.8-12.38,8.25-17.58,10.23-3.01,1.14-8.88,3.79-11.35.79-1.39-1.69-1.13-5.24.49-6.72,1.46-1.33,10.03-3.69,12.84-5.1,2.88-1.45,10.04-7.22,12.14-7.62Z"/>
      <path class="cls-1" d="M95.49,13.42c-3-3.07-2.42-15.55,5.25-13.1,3.31,1.05,3.28,8.85,2.47,11.48-.97,3.15-5.41,3.98-7.72,1.62Z"/>
      <path class="cls-1" d="M95.49,28.08c2.31-2.36,6.75-1.53,7.72,1.62.81,2.63.84,10.43-2.47,11.48-7.68,2.45-8.26-10.03-5.25-13.1Z"/>
      <path class="cls-1" d="M212.7,50.2c-2.25,2.26-7.11,1.52-7.8-1.52-.32-1.42-.34-7.36-.03-8.77.88-3.94,7.53-4.1,8.68-.34.58,1.91.57,9.2-.85,10.63Z"/>
      <path class="cls-1" d="M201.94,54.09c2.26,2.25,1.52,7.11-1.52,7.8-1.42.32-7.36.34-8.77.03-3.94-.88-4.1-7.53-.34-8.68,1.91-.58,9.2-.57,10.63.85Z"/>
      <path class="cls-1" d="M212.7,64.86c1.42,1.44,1.43,8.73.85,10.63-1.15,3.76-7.79,3.59-8.68-.34-.32-1.41-.3-7.35.03-8.77.69-3.04,5.55-3.79,7.8-1.52Z"/>
      <path class="cls-1" d="M106.26,24.18c-2.26-2.25-1.52-7.11,1.52-7.8,1.42-.32,7.36-.34,8.77-.02,3.27.74,4.1,5.76,1.45,7.98-1.67,1.4-10.13,1.44-11.74-.16Z"/>
      <path class="cls-1" d="M81.31,16.36c1.48-.33,7.67-.28,8.99.24,3.32,1.34,3.5,6.49.28,8.13-1.61.82-8.59.83-10.2,0-3.27-1.69-2.67-7.56.93-8.37Z"/>
      <path class="cls-1" d="M134.68,70.63c7.78-1.77,8.01,9.06,1.7,9.09-6.02.03-5.89-8.14-1.7-9.09Z"/>
    </g>
  </g>
</svg>