<?xml version="1.0" encoding="UTF-8"?>
<svg id="Capa_2" data-name="Capa 2" xmlns="http://www.w3.org/2000/svg" viewBox="0 0 115.9 141.43">
  <defs>
    <style>
      .cls-1 {
        fill: #fff;
      }
    </style>
  </defs>
  <g id="Capa_1-2" data-name="Capa 1">
    <g>
      <path class="cls-1" d="M61.81.15c22.2,1.94,39.72,22.92,37.52,45.11-.2,1.99-.73,3.97-.96,5.95,4.06,2.86,8.96,5.11,12.92,8.04,3.03,2.24,4.35,4.49,4.62,8.35v65.69c-.49,4.15-3.78,7.45-7.87,8.13H8.42c-4.19-.28-7.55-3.57-8.38-7.61l-.04-66.21c.16-2.76,1.17-5.37,3.19-7.29l14.35-9.1c-3.73-16.36,2.44-33.29,15.88-43.17C38.68,4.18,46.44.73,52.99.15c2.32-.2,6.51-.2,8.83,0ZM54.31,6.03c-36.56,2.99-43.86,54.58-10.42,68.47,1.74.72,5.55,1.48,6.76,2.35,1.8,1.29,5.1,9.09,6.8,11.41.17.23.27.54.65.45.67-.16,5.66-10.67,7.03-11.73,4.13-1.64,7.88-2.68,11.74-5.09C108.41,52.2,92.69,2.89,54.31,6.03ZM5.53,83.2v41.94l32-17.39c.08-.38.05-.35-.18-.57-1.53-1.46-6.18-3.9-7.11-5.52-1.47-2.57,1.4-5.42,3.95-3.95l8.83,6.61c5.78-2.45,9.41-6.44,16.18-5.96,5.18.37,9.03,4.12,13.67,5.96l36.96-27.87.48-.62c-.19-3.74,1.09-8.97-2.02-11.66-3.04-2.63-7.97-4.43-11.18-7.04l-.82-.14c-4.45,12.07-15.19,21.27-27.52,24.62-3.31,4.49-5.94,16.09-13.68,12.3-.61-.3-1.24-.82-1.68-1.35-2.36-2.8-4.13-7.84-6.3-10.94-12.42-3.37-22.97-12.64-27.66-24.63-4.37,2.54-9.17,4.97-12.94,8.3-1.56,2.34-.89,7.92-.84,10.74l9.36,7.2c1.59,1.76.4,4.83-1.93,4.93-2.1.08-5.62-3.93-7.56-4.95ZM110.37,125.14v-41.94l-32.01,24.14,32.01,17.79ZM110.37,131.78l-46.61-25.82c-2.67-1.64-5.53-2.41-8.63-1.45l-49.59,27.41c.4,2.83,1.8,3.78,4.55,3.99h95.48c2.92-.19,4.49-1.02,4.81-4.13Z"/>
      <path class="cls-1" d="M54.29,23.11c1.43-.28,2.23.47,3.25,1.31,5.73,4.77,10.85,11.6,16.55,16.56,1.33,1.69,1.85,3.12.12,4.82-4.49,2.05-9.2,3.79-13.32,6.55-.76.51-4.49,3.29-4.76,3.81-.2.4-.06.4.14.69,1.05,1.53,5.53,4.79,5.96,6.18.75,2.38-.84,4.25-3.31,3.86-1.73-.27-5.25-5.19-6.95-6.31-3.51,3.09-6.51,5.42-11.41,3.43-2.03-.83-5.22-4.02-6.13-6.01-3.42-7.57,4.29-11.67,8.47-16.47,4.37-5.02,6.99-11.14,9.55-17.21.34-.54,1.2-1.1,1.82-1.22ZM67.33,42.64l-11.58-11.58c-2.23,5.73-5.58,10.95-9.64,15.55l5.63,5.63c4.72-3.9,9.77-7.52,15.59-9.59ZM42.09,50.65c-1.31,1.4-3.25,2.49-2.56,4.77.09.29,2.79,3.01,3.15,3.19,2.37,1.22,3.57-.89,5.06-2.31l-5.65-5.65Z"/>
      <path class="cls-1" d="M63.67,13.46c2.31-.6,3.76.85,3.67,3.11-.04,1.11-1.3,5.82-1.88,6.68-1.26,1.86-4.51,1.33-4.97-.67-.3-1.31.9-6.45,1.53-7.73.25-.5,1.14-1.26,1.65-1.39Z"/>
      <path class="cls-1" d="M74.15,20.63c2.45-.55,4.46,1.83,3.33,4.16-.22.45-4.45,4.74-4.92,5.01-2.49,1.41-5.26-1.14-4.18-3.63.29-.67,5.12-5.38,5.78-5.53Z"/>
      <path class="cls-1" d="M82.09,30.92c2.66,0,3.91,3.26,2.06,4.95-1.01.92-6.96,2.34-8.34,2.02-1.9-.43-2.43-3.35-1-4.75.68-.67,6.25-2.23,7.29-2.23Z"/>
      <path class="cls-1" d="M25.03,90.73c2.43,2.75-1.83,6.75-4.34,3.92-2.56-2.89,1.88-6.71,4.34-3.92Z"/>
    </g>
  </g>
</svg>