<?xml version="1.0" encoding="UTF-8"?>
<svg id="Capa_2" data-name="Capa 2" xmlns="http://www.w3.org/2000/svg" viewBox="0 0 141.96 118.81">
  <defs>
    <style>
      .cls-1 {
        fill: #fff;
      }
    </style>
  </defs>
  <g id="Capa_1-2" data-name="Capa 1">
    <g>
      <path class="cls-1" d="M.17,66.18c.13-1.33.84-3.89,1.25-5.26,2.6-8.81,9.54-16.64,18.13-19.94.33-.45-2.09-1.97-2.49-2.35C3.62,26.26,9.6,3.74,27.56.43c22.11-4.07,35.55,23.24,18.56,38.49-.44.4-2.07,1.37-2.22,1.66-.21.43.19.38.35.47.97.57,3.35,1.35,3.93,2.16,1.18,1.63.48,4.04-1.51,4.57-1.71.46-4.24-1.38-6.03-2.01-11.16-3.96-23.47-.14-30.19,9.53-4.98,7.17-4.97,14.88-4.76,23.34h35.02c.25,0,1.68.59,1.95.82,1.82,1.56.8,4.5-1.41,4.98l-38.74.02c-1.15-.01-1.69-.9-2.35-1.67.39-5.32-.53-11.38,0-16.61ZM29.45,5.92c-20.16,2.43-17.59,33.78,3.24,32.58,21.88-1.26,19.41-35.31-3.24-32.58Z"/>
      <path class="cls-1" d="M82.94,75.04c8.7,3.14,15.92,11.29,18.47,20.15,2.02,7.01,1.04,14.72,1.04,21.92l-1.84,1.48c-19.28.43-38.65.05-57.96.19-1.33.06-3.01-1.01-3.19-2.35.29-7.15-.8-14.3,1.2-21.25,2.55-8.86,9.75-17.03,18.47-20.15-10.44-7.23-13.58-21.05-6.04-31.64,8.68-12.19,26.98-12.26,35.77-.16,7.7,10.6,4.56,24.52-5.92,31.8ZM69.87,39.97c-23.29,1.82-17.65,37.78,5.26,32.11,19.03-4.71,14.32-33.63-5.26-32.11ZM97.05,112.97c.33-9.33.14-17.87-6.1-25.32-10.91-13.03-30.9-12.19-40.91,1.43-5.34,7.27-5.27,15.2-5.03,23.89h52.04Z"/>
      <path class="cls-1" d="M136.36,78.64c.22-8.42.21-16.2-4.76-23.34-6.68-9.6-18.88-13.45-29.99-9.61-1.3.45-4.29,2.2-5.26,2.24-2.53.11-4.04-2.94-2.36-4.87.62-.71,2.86-1.45,3.81-2.01.16-.09.57-.04.35-.47-.14-.29-1.78-1.27-2.22-1.66-12.52-11.25-9.21-31.85,6.78-37.52,22.72-8.05,40.12,20.33,22.43,37.1-.42.4-2.96,2.04-2.64,2.48,8.67,3.35,15.63,11.24,18.19,20.15,1.99,6.92.95,14.1,1.17,21.22-.17,1.08-1.22,2.05-2.33,2.1l-38.74-.02c-2.21-.48-3.23-3.42-1.41-4.98.27-.23,1.69-.82,1.95-.82h35.02ZM108.06,5.92c-20.01,2.3-17.8,33.8,3.24,32.58,21.65-1.25,19.57-35.2-3.24-32.58Z"/>
    </g>
  </g>
</svg>