<?xml version="1.0" encoding="UTF-8"?>
<svg id="Capa_2" data-name="Capa 2" xmlns="http://www.w3.org/2000/svg" viewBox="0 0 141.96 162.92">
  <defs>
    <style>
      .cls-1 {
        fill: #fff;
      }
    </style>
  </defs>
  <g id="Capa_1-2" data-name="Capa 1">
    <g>
      <path class="cls-1" d="M76.3.32c-.83.51-2.42,5.03-2.8,7.99-.51,4.2.16,8.27,1.94,11.81.51,1.02.92,1.88.92,1.94s-1.24-.32-2.77-.83c-3.34-1.08-10.5-2.86-13.68-3.4-2.9-.48-3.95-.1-4.36,1.65-.41,1.62.32,2.67,2.2,3.15l1.43.35-2.35,1.56c-5.54,3.63-8.88,9.32-9.58,16.26-.25,2.39.19,4.2,1.11,4.71,1.05.57,5.15.73,7.64.32,6.9-1.15,12.7-5.35,15.62-11.3,1.21-2.51,2.2-5.63,2.2-7.06v-.7l2.48.89c5.66,2.1,13.4,5.92,18.52,9.2l1.75,1.11-2.23.45c-1.21.25-3.44,1.05-4.93,1.75-2.16,1.05-3.18,1.81-5.41,4.04-3.02,3.05-4.71,5.95-5.6,9.64-.89,3.56-.38,4.26,3.85,5.35,9.55,2.45,20.08-2.32,24.12-10.88.57-1.18,1.08-2.16,1.18-2.16.73-.03,13.01,12.03,15.59,15.31l.95,1.15-1.88,1.62-1.88,1.65-1.53-1.24c-7.38-5.79-17.44-6.62-26.06-2.16-3.56,1.85-7.76,6.05-9.61,9.64-2.2,4.23-2.8,6.87-2.67,11.74.22,8.4.19,8.88-.38,10.79l-.57,1.88-1.53-3.15c-1.94-4.07-4.55-8.24-7.16-11.42-1.11-1.4-7.54-8.02-14.26-14.67-11.46-11.42-12.31-12.19-14.1-12.86-2.8-1.02-6.62-.83-9.04.48-1.91,1.05-3.5,2.74-4.52,4.9-.57,1.15-.73,2.04-.73,4.17-.03,3.6.86,5.57,3.95,8.75l2.26,2.32-.89.19c-1.34.35-3.75,2-4.71,3.25-2.8,3.66-3.05,8.34-.67,12.31l1.05,1.75-1.4.54c-.76.32-2.16,1.27-3.09,2.2-2.13,2.07-3.05,4.36-3.05,7.51,0,1.24-.13,2.23-.29,2.23s-2.61-.92-5.47-2.07c-5.7-2.26-6.94-2.45-8.05-1.34-1.05,1.05-3.15,4.77-4.42,7.86-2.45,5.98-3.4,11.3-3.4,19.09,0,5.73.51,10.02,1.78,15.31.89,3.75,1.4,4.49,3.05,4.49.67,0,5.66-2,13.3-5.31,6.75-2.93,12.41-5.38,12.63-5.47.25-.1.7.54,1.21,1.65,1.56,3.56,6.14,10.28,7.51,11.01,1.59.83,3.79-.41,3.79-2.16,0-.92-.22-1.27-2.99-4.9-2.13-2.8-4.8-8.46-5.79-12.25-.57-2.26-.86-4.36-.99-7.45l-.19-4.3,6.65,6.52c3.66,3.6,7.48,7.1,8.5,7.76,4.8,3.15,9.74,4.65,15.4,4.65s8.08-.7,8.5-2.42c.57-2.23-1.21-3.6-3.95-3.02-.89.19-2.96.35-4.58.35-5.85,0-10.37-1.85-15.27-6.24-4.71-4.23-20.75-20.56-21.35-21.73-.73-1.46-.54-4.04.45-5.41,1.37-1.91,4.1-2.74,6.3-1.91.48.16,2.83,2.26,5.22,4.61,3.98,3.91,4.42,4.26,5.47,4.26,1.56,0,2.45-.89,2.45-2.45,0-1.11-.41-1.59-7.45-8.69-7.92-7.99-8.43-8.69-7.99-11.07.32-1.69,1.21-3.02,2.64-3.82,1.4-.76,3.79-.95,4.93-.35.38.19,4.71,4.36,9.61,9.23,8.02,7.99,9.04,8.88,9.96,8.88,1.4,0,2.61-1.21,2.61-2.61,0-.95-1.24-2.26-13.68-14.73-9.32-9.32-13.81-14.06-14.16-14.86-.64-1.56-.6-2.67.13-4.3,1.21-2.61,4.45-3.75,7.1-2.51,1.65.8,25.52,24.98,27.68,28.03,5.15,7.35,9.04,16.99,10.47,25.93.35,2.2.7,4.3.8,4.68.16.92,1.85,1.81,2.86,1.56,1.21-.32,2.04-1.34,2.04-2.55,0-1.75-1.21-8.37-2.13-11.58-.76-2.67-.76-2.99-.32-3.5.92-1.02,2.77-5.31,3.25-7.54.57-2.74.6-4.52.1-8.46-.32-2.64-.29-3.44.16-5.73,1.37-6.94,6.43-12.63,13.11-14.67,2.9-.89,7.45-.95,10.18-.13,11.65,3.47,17.09,15.88,11.68,26.67-1.69,3.4-4.74,6.33-8.88,8.5-3.75,1.97-5.41,3.53-6.81,6.52-1.21,2.61-1.43,5-.8,8.97,1.94,12.25-1.81,23.64-10.56,32.01-6.87,6.55-14.99,9.8-24.44,9.83-6.52,0-12.66-1.65-18.07-4.87-2.61-1.53-4.1-1.72-5.03-.57-.83,1.02-.73,2.74.19,3.6,1.24,1.15,6.75,3.91,9.9,4.96,4.14,1.37,7.86,1.94,12.89,1.94,11.17,0,20.3-3.66,28.29-11.3,5.41-5.19,9.36-11.9,11.2-19.09,1.18-4.61,1.56-11.04.95-15.43-.73-4.93-.73-5.25-.38-6.59.6-2.29,2.13-3.91,5.15-5.5,6.08-3.21,9.55-6.87,11.96-12.57,1.46-3.47,2.1-9.51,1.37-13.21-.22-1.18-.16-1.53.32-2.07.8-.89,1.94-3.25,2.39-4.93l.35-1.4,2.55,3.79c1.4,2.1,2.96,4.55,3.47,5.47,1.34,2.35,2.83,2.93,4.42,1.65,1.4-1.08,1.15-2.48-1.05-6.08-2.51-4.14-5.5-8.4-8.91-12.66l-2.8-3.56,1.4-1.3c2.07-1.91,4.42-5.63,5.41-8.59.76-2.32.86-3.09.86-6.75s-.1-4.42-.86-6.75c-.92-2.74-3.47-6.9-4.9-8.05-1.15-.89-2.29-.8-3.98.32-5.25,3.47-8.69,9.51-9.13,15.97l-.19,3.09-2.55-2.23c-3.53-3.15-7.7-6.46-11.46-9.1-3.37-2.39-9.9-6.46-10.41-6.46-.13,0-.06-.41.22-.95.57-1.15,1.43-4.58,1.43-5.92s-1.02-2.35-2.51-2.35c-1.59,0-2.2.7-2.77,3.21-.25,1.11-.54,2.07-.6,2.13s-.95-.38-1.97-.99c-4.87-2.96-7.76-8.11-7.83-13.75,0-2.45.51-5.25.99-5.25.13,0,.95.45,1.88.95,2.29,1.3,4.58,3.75,5.95,6.36.67,1.21,1.43,2.35,1.78,2.55,1.69.89,3.82-.35,3.82-2.26,0-1.24-1.46-3.98-3.37-6.4-3.53-4.45-10.76-8.05-13.24-6.62ZM68.64,27.49c-.7,4.96-4.45,9.8-9.45,12.09-1.88.86-6.17,1.75-6.59,1.37-.38-.41.48-3.79,1.56-5.95,2.35-4.87,8.37-8.75,13.75-8.88.89-.03.92,0,.73,1.37ZM130.18,37.55c.83,2.2,1.11,5.95.64,8.37-.54,2.48-2.23,5.76-4.07,7.83l-1.56,1.72-.83-1.4c-1.27-2.2-1.91-4.36-2.1-7.13-.25-4.61,1.15-8.66,4.14-11.81l1.65-1.75.73,1.21c.41.67,1.05,2,1.4,2.96ZM102.68,43.4c.45.45-1.91,4.49-3.66,6.3-3.34,3.53-7.57,5.22-12.38,4.96-1.46-.06-2.74-.25-2.86-.38s.32-1.3.95-2.58c2.07-4.01,5.82-7,10.41-8.27,1.72-.48,7.1-.51,7.54-.03ZM19.19,109.78c5.76,2.29,8.31,3.44,8.91,4.07l.86.89-.35,2.7c-.45,3.21-.19,9.71.51,12.82.25,1.21.45,2.23.38,2.26-.13.1-21.73,9.36-22.24,9.55-.41.16-.6-.06-.86-1.05-1.21-4.39-1.69-14.22-.95-19.35.57-4.17,1.78-8.31,3.44-11.77.86-1.81,1.72-3.31,1.91-3.31.16,0,3.95,1.43,8.4,3.18Z"/>
      <path class="cls-1" d="M103.89,74.46c-.8.86-.7,3.25.19,4.65.92,1.53,2.58,2.7,4.07,2.9,3.98.54,3.69-5.63-.35-7.73-1.27-.67-3.21-.57-3.91.19Z"/>
    </g>
  </g>
</svg>