<?xml version="1.0" encoding="UTF-8"?>
<svg id="Capa_2" data-name="Capa 2" xmlns="http://www.w3.org/2000/svg" xmlns:xlink="http://www.w3.org/1999/xlink" viewBox="0 0 800 1700">
  <defs>
    <style>
      .cls-1 {
        fill: #5c3896;
      }

      .cls-2 {
        fill: #a61f23;
      }

      .cls-3 {
        fill: #fff;
      }

      .cls-4 {
        fill: #f9de56;
      }

      .cls-5 {
        fill: #009db3;
      }

      .cls-6, .cls-7 {
        fill: none;
      }

      .cls-8 {
        fill: #58238c;
        font-family: NotoSans-Bold, 'Noto Sans';
        font-size: 108.58px;
        font-weight: 700;
      }

      .cls-9 {
        fill: #4cc0e6;
      }

      .cls-10 {
        fill: #ee8722;
      }

      .cls-11 {
        fill: #3f1d57;
      }

      .cls-12 {
        fill: #2575b5;
      }

      .cls-13 {
        fill: #2476b6;
      }

      .cls-14 {
        fill: #fcc10b;
      }

      .cls-15 {
        fill: #c52628;
      }

      .cls-16 {
        fill: #fac49e;
      }

      .cls-17 {
        fill: #c77e29;
      }

      .cls-18 {
        fill: #96d2dc;
      }

      .cls-19 {
        fill: #fab612;
      }

      .cls-20 {
        fill: #f15857;
      }

      .cls-21 {
        fill: #0094b4;
      }

      .cls-7 {
        stroke: #58238c;
        stroke-dasharray: 30;
        stroke-linecap: round;
        stroke-linejoin: round;
        stroke-width: 7px;
      }

      .cls-22 {
        clip-path: url(#clippath);
      }

      .cls-23 {
        fill: #e14d4c;
      }

      .cls-24 {
        fill: #82ced7;
      }

      .cls-25 {
        fill: #fbce1e;
      }
    </style>
    <clipPath id="clippath">
      <rect class="cls-6" width="800.83" height="1808.36"/>
    </clipPath>
  </defs>
  <g id="Capa_1-2" data-name="Capa 1">
    <g class="cls-22">
      <g>
        <path class="cls-15" d="M96.3,427.8c0-160.79,130.22-291.13,290.87-291.13,160.64,0,290.87,130.35,290.87,291.13H96.3Z"/>
        <path class="cls-2" d="M1216.12,2502.69c-54.1-94.63-117.67-239.55-175.07-405.82-105.28-305-149.89-566.33-99.63-583.68l381.27,1104.53c-22.86,7.89-61.42-36.06-106.57-115.03"/>
        <path class="cls-24" d="M1012.01,1859.59c-50.44-61.55-100.21-159.6-135.15-275.17-64.09-211.98-54.01-402.6,22.52-425.74l232.11,767.69c-34.82,10.53-77.39-15.41-119.48-66.78"/>
        <path class="cls-23" d="M1023.62,2259.82c-39.61-66.05-81.54-167.92-114.55-285.4-60.55-215.49-68.15-401.85-16.96-416.23l219.28,780.37c-23.29,6.54-54.72-23.62-87.78-78.74"/>
        <path class="cls-9" d="M856.76,1783.06c-46.17-64.81-89.2-166.01-116.26-283.67-49.63-215.83-26.69-405.33,51.23-423.25l179.73,781.61c-35.45,8.15-76.17-20.6-114.7-74.69"/>
        <path class="cls-21" d="M943.22,1303.07c-264.02,76.15-539.73-75.94-615.82-339.75-76.08-263.78,76.27-539.37,340.29-615.52l275.53,955.26Z"/>
        <path class="cls-17" d="M1274.95,1702.81c-31.09-19.76-68.71-56.46-103.8-103.76-64.37-86.76-95.88-176.31-70.37-200.02l233.12,314.19c-11.61,10.78-33.01,6.09-58.96-10.41"/>
        <path class="cls-4" d="M1105.75,1427.88c-44.78-39.65-94.4-107.7-136.06-191.67-76.42-154.04-97.07-303.34-46.13-333.46l276.73,557.84c-23.17,13.7-57.17.39-94.54-32.71"/>
        <path class="cls-17" d="M1090.74,1575.99c-29.48-22.09-64.17-61.58-95.52-111.43-57.52-91.45-82.05-183.16-54.8-204.84l208.3,331.17c-12.4,9.86-33.38,3.53-57.98-14.9"/>
        <path class="cls-14" d="M1008.26,1402.45c-32.38-35.69-66.36-94.37-92.78-164.93-48.46-129.43-53.09-249.83-10.34-268.91l175.48,468.73c-19.45,8.68-45.35-5.1-72.37-34.89"/>
        <path class="cls-15" d="M960.29,1400.6c-25.03-35.44-51.18-91.55-71.37-157.41-37.04-120.8-39.99-228.63-6.59-240.84l134.14,437.46c-15.2,5.55-35.3-9.63-56.18-39.21"/>
        <path class="cls-19" d="M1134.07,1563.95c-32.91-31.25-69.38-84.87-99.99-151.04-56.16-121.38-71.34-239.03-33.9-262.77l203.37,439.58c-17.03,10.8-42.01.3-69.48-25.77"/>
        <path class="cls-25" d="M916.2,1387.49c-30.29-31.07-64.94-82.37-95.24-144.23-55.57-113.47-75.44-219.49-44.37-236.81l201.26,410.92c-14.13,7.87-36.37-3.96-61.65-29.89"/>
        <path class="cls-1" d="M1017.79,1207.38c-61.81-50.13-130.3-136.15-187.8-242.31-105.47-194.73-133.98-383.48-63.68-421.56l381.96,705.21c-31.98,17.32-78.9.49-130.48-41.35"/>
        <path class="cls-12" d="M883.23,1175.23c-44.69-45.12-91.59-119.3-128.06-208.5-66.88-163.63-73.27-315.83-14.27-339.95l242.21,592.56c-26.84,10.97-62.59-6.45-99.88-44.11"/>
        <path class="cls-10" d="M817.02,1172.89c-34.54-44.81-70.64-115.74-98.51-198.99-51.13-152.71-55.2-289.03-9.09-304.47l185.15,553.03c-20.97,7.02-48.72-12.18-77.55-49.57"/>
        <path class="cls-5" d="M732.19,1160.8c-34.54-44.81-70.64-115.74-98.51-198.99-51.13-152.71-55.2-289.03-9.09-304.47l185.15,553.03c-20.97,7.02-48.72-12.18-77.55-49.57"/>
        <path class="cls-13" d="M929.57,752.98c-101.58,73.23-243.24,50.33-316.41-51.17-73.16-101.49-50.13-243.13,51.45-316.36l264.96,367.53Z"/>
        <path class="cls-10" d="M749.25,824.01c-118.41,40.76-247.4-22.1-288.13-140.41-40.72-118.3,22.26-247.25,140.67-288l147.46,428.41Z"/>
        <path class="cls-20" d="M376.98,833.98c-116.17-46.74-172.5-178.72-125.8-294.8,46.7-116.07,178.74-172.28,294.91-125.54l-169.11,420.34Z"/>
        <circle class="cls-3" cx="297.13" cy="246.86" r="54.06"/>
        <ellipse class="cls-11" cx="297.68" cy="246.71" rx="34.49" ry="35.2"/>
        <path class="cls-16" d="M145.96,456.73c-52.78,0-95.56-42.74-95.56-95.48,0-52.73,42.79-95.48,95.56-95.48v190.96Z"/>
        <path class="cls-1" d="M276.47,475.46c-37.32,37.32-97.8,37.35-135.09.06-37.29-37.29-37.26-97.77.06-135.09l135.03,135.03Z"/>
        <path class="cls-18" d="M625.51,868.14c-121.13,31.77-245.05-40.57-276.8-161.6-31.74-121.02,40.72-244.88,161.85-276.65l114.95,438.26Z"/>
        <path class="cls-24" d="M821.11,554.72c-64.52,46.51-154.5,31.97-200.98-32.5-46.47-64.46-31.84-154.43,32.68-200.95l168.3,233.45Z"/>
        <path class="cls-21" d="M710.24,603.49c-75.21,25.89-157.15-14.04-183.01-89.19-25.86-75.14,14.14-157.05,89.35-182.93l93.66,272.12Z"/>
        <path class="cls-14" d="M473.78,609.82c-73.79-29.69-109.57-113.52-79.91-187.25,29.66-73.73,113.53-109.43,187.32-79.74l-107.42,266.99Z"/>
        <path class="cls-10" d="M631.64,631.52c-76.94,20.18-155.65-25.77-175.82-102.65-20.16-76.87,25.86-155.55,102.8-175.73l73.01,278.38Z"/>
        <path class="cls-20" d="M446.64,490.63c-34.91-45.87-15.47-119.39,43.43-164.22,58.9-44.82,134.95-43.98,169.86,1.89l-213.29,162.33Z"/>
      </g>
      <text class="cls-8" transform="translate(149.5 212.09) rotate(-39.23)"><tspan x="0" y="0">C</tspan></text>
      <text class="cls-8" transform="translate(208.24 164.08) rotate(-25.09)"><tspan x="0" y="0">H</tspan></text>
      <text class="cls-8" transform="translate(289.4 126.78) rotate(-9.44)"><tspan x="0" y="0">O</tspan></text>
      <text class="cls-8" transform="translate(381.48 113.81) rotate(4.22)"><tspan x="0" y="0">L</tspan></text>
      <text class="cls-8" transform="translate(449.64 118.84) rotate(17.11)"><tspan x="0" y="0">A</tspan></text>
      <text class="cls-8" transform="translate(525.52 142.03) rotate(31.71)"><tspan x="0" y="0">O</tspan></text>
      <path class="cls-7" d="M623.68,173.74s71.46,65.29,86.55,147.53l101.92,135.47"/>
    </g>
  </g>
</svg>