<?xml version="1.0" encoding="UTF-8"?>
<svg id="Capa_2" data-name="Capa 2" xmlns="http://www.w3.org/2000/svg" viewBox="0 0 204.88 248">
  <defs>
    <style>
      .cls-1 {
        fill: #e46e27;
      }
    </style>
  </defs>
  <g id="Capa_1-2" data-name="Capa 1">
    <g>
      <path class="cls-1" d="M175.86,88.58c1.8,10.9,3.93,21.75,6.15,32.57,2.15,10.48,7,25.68,7.83,35.63,1.45,17.31-22.37,22.15-27.94,5.96l-7.53-33.2c-.52-.52-9.16,5.59-10.23,6.51-3.25,11.38.35,32.78-16.05,34.41-7.04.7-14.65-4.57-15.64-11.73-.74-5.31,2.71-27.24,4.1-33.28,1.22-5.27,3.28-7.44,7.4-10.59,7.55-5.78,16.56-10.07,23.84-16.14l-2.92-19.39-.73-.75-23.55,13.42c-1.38,1.51-6.99,1.26-7.61,1.64-.34.2-2.37,5.02-4.11,6.63-2.69,2.49-20.99,13.4-24.6,14.87-6.08,2.47-11.91.06-17.82-1.59l1.04,12.94c7.6,2.94,17.77,4.64,24.87,8.35,5.71,2.98,6.87,7.09,7.97,13.02,1.85,9.95,4.71,26.08,5.1,35.87.72,18.15-23.75,21.58-28.37,4.39l-4.22-29.26c-.05-.74-2.71-1.55-2.9-1.35-.55,3.79-2.96,7.58-4.74,11-6.07,11.7-12.85,25.74-19.66,36.8-9.36,15.2-30.88,5.33-26.31-11.32l22.13-41.83-2.4-25.12c-.67-.84-16.01,10.83-17.97,11.76-15.59,7.37-29.05-12.65-15.25-24.24,8.69-7.3,20.76-12.99,29.75-20.21.91-3.78,1.79-7.45,4.72-10.27,9.54-9.16,25.27,1.38,36.35,2.39,5.49-2.79,11.06-7.5,16.68-9.82,1.78-.74,5.86-1.34,6.67-1.83.84-.52,1.99-4.4,3.24-5.25,14.45-8.33,29.91-18.84,44.89-26.05,4.4-2.12,7.91-2.75,12.67-1.01,3.78,1.38,5.94,4.63,8.99,7,9.03,6.98,22.19,13.23,30.37,20.59,11.17,10.03,1.37,28.55-13.95,24.44-3.97-1.06-6.52-4.5-10.27-5.96ZM155.7,103.9c-8.47,6.43-19.29,11.66-27.47,18.24-3.04,2.44-3.03,3-3.75,6.74-1.35,6.97-3.29,18.47-3.6,25.38-.14,3.03-.26,5.21,2.67,6.87,3.27,1.84,6.47.8,8.46-2.23,2.09-9.16,2.22-18.83,4.64-27.84,5.62-3.45,11.52-8.7,17.26-11.72,3.09-1.63,4.82-1.55,6.83,1.6,3.32,11.92,5.09,24.65,8.46,36.5.73,2.58,1.03,5.02,3.71,6.28,5.25,2.46,8.95-1.99,8.31-7.31-1.55-12.83-6.59-29.02-9.22-42.24-3.91-19.68-7.34-39.47-10.69-59.26-1.1-4.35-4.04-5.68-8.3-4.41l-42.27,23.68c-5.67,3.91-2.73,12,4.38,10.88,1.25-.2,2.91-1.29,4.11-1.88,9.05-4.47,17.85-10.46,26.87-15.1,3.68-1.21,5.22.67,6.04,4,1.57,6.42,4.48,21.48,4.73,27.76.07,1.65,0,2.8-1.17,4.06ZM170.86,60.6l3,16.23c5.09,2.27,14.95,13.52,20.5,8.52,2.62-2.36,2.61-6.25.25-8.79l-23.75-15.96ZM98.29,83.68c-.8.1-1.79.65-2.53,1-4.03,1.89-14.37,9.84-17.61,10.37-1.27.21-2.5,0-3.75-.2-6.95-1.1-17.27-6-23.73-6.29-6.42-.29-6.4,5.02-6.22,9.75.7,17.94,4.51,36.85,5.47,54.9-6.86,14.51-15,28.38-22.35,42.64-2.83,6.82,5.87,12.04,10.29,5.79,7.96-15.45,17.2-30.51,24.1-46.36-1.21-9.15,2.86-8.42,9.72-6.28,2.85.89,8.29,2.35,9.12,5.37,2.46,8.96,2.16,21.3,4.25,30.73,1.03,4.63,4.5,7.6,9.21,4.99,2.75-1.52,2.79-4.56,2.64-7.34-.49-9.1-2.93-22.67-4.57-31.9-.64-3.57-.34-6.66-3.92-8.57-7.41-3.97-19.24-5.18-26.49-8.99-1.53-.8-2.07-1.85-2.45-3.54-.94-4.21-2.07-16.52-2.08-20.94-.01-4.24,2.42-5.07,6.16-4.62,4.08.5,12.4,4.32,15.88,3.67.88-.16,1.99-.8,2.83-1.21,2.85-1.38,20.41-11.73,21.65-13.32,2.28-2.94-.35-3.37-1.92-5.59-1.39-1.98-1.29-4.36-3.71-4.07ZM36.96,104.07c-.94-.14-1.53.58-2.25.99-8.33,4.82-16.27,11.64-24.56,16.66-4.23,4.74-.07,11.88,6.19,9.93l21.52-14.2-.9-13.39Z"/>
      <path class="cls-1" d="M136.38,189.5v26.23c0,1.21-3.06,3.25-4.25,3.25h-53.71v26.23c0,.95-2.51,3.05-3.74,2.76l-66.49.02c-2.72-.36-3.88-3.14-3.12-5.67.14-.46,1.98-2.35,2.14-2.35h62.7v-26.23c0-.57,1.97-3.25,2.75-3.25h55.21v-26.23c0-.61,2.6-3.64,3.72-3.27h65.99c6.29.75,4.34,8.52.49,8.52h-61.7Z"/>
      <path class="cls-1" d="M52.34,36.26c26.65-3.18,32.81,35.59,8.12,41.6-29.5,7.18-37-38.15-8.12-41.6ZM64.26,48.29c-11.12-11.29-29.21,4.15-19.31,17.06,10.64,13.87,31.83-4.34,19.31-17.06Z"/>
      <path class="cls-1" d="M137.26.28c29.97-4.06,32.87,37.89,8.24,41.72C115.24,46.7,111.64,3.75,137.26.28ZM140.29,8.26c-16.46,1.17-15.17,25.9.84,25.9,17.23,0,16.51-27.13-.84-25.9Z"/>
    </g>
  </g>
</svg>