<?xml version="1.0" encoding="UTF-8"?>
<svg id="Capa_2" data-name="Capa 2" xmlns="http://www.w3.org/2000/svg" viewBox="0 0 686.25 613.46">
  <defs>
    <style>
      .cls-1 {
        fill: #fff;
      }
    </style>
  </defs>
  <g id="Capa_1-2" data-name="Capa 1">
    <g>
      <path class="cls-1" d="M139.31,162.53l13.72-39.86c-.42-.13-.84-.23-1.26-.38l-6.91-2.38.9-2.6c-6.08-.25-11.96-1.77-17.35-4.47l-28.47,39.49c11.86,8.55,25.92,11.79,39.37,10.2Z"/>
      <path class="cls-1" d="M46.98,325.91l26.81-57.95c1.43-1.02,2.88-2.12,4.35-3.31,5.29-4.29,10.78-9.67,16.29-15.93l32.21-78.8c-7.25-.69-14.26-2.63-20.81-5.72l-59.94,110.66c3.56,1.93,7.88,2.13,12.7.84l-25.56,51.53c3.7,2.19,8.52,1.58,13.95-1.33Z"/>
      <path class="cls-1" d="M60.17,539.34c3.15-2.13,7.68-6.93,13.39-16.45,9.99-16.66,20.17-42.05,27.93-69.65,3.04-10.81,5.54-21.43,7.52-31.57-6.01,4.72-12.33,7.57-18.01,7.97l-30.83,109.7Z"/>
      <path class="cls-1" d="M82.39,428.17c-7.49,9.13-14.82,14.94-21.69,17.27L2.77,613.24c5.65,1.95,15.18-8.91,26.34-28.43,8.12-14.2,17.1-33.01,26.09-54.78l29.42-104.71c-.74.97-1.48,1.94-2.23,2.85Z"/>
      <path class="cls-1" d="M89.13,268.23c-2.68,10-8.83,31.6-15.8,46.68-5.86,12.65-12.59,23.37-19.09,31.07l-8.46,13.45c3.06,2.44,8.25.87,14.33-3.68,7.29-5.46,15.86-15.22,23.61-27.54,1.12-1.78,2.17-3.55,3.18-5.32-.54,0-1.08-.06-1.58-.24l18.13-59.13c-5.22,3.67-10.11,5.36-14.32,4.71Z"/>
      <ellipse class="cls-1" cx="256.12" cy="27.2" rx="8.53" ry="8.7"/>
      <path class="cls-1" d="M208.57,46.9c-14.56-11.08-33.35-10.87-41.98.47l52.72,40.12c8.63-11.34,3.82-29.51-10.73-40.59Z"/>
      <path class="cls-1" d="M213,41.08c8.33,6.34,14.26,14.91,16.7,24.15.02.09.03.18.06.27h0c.09.35.13.69.21,1.04.22.95.4,1.89.54,2.83.02.17.04.34.06.51.37,2.8.39,5.54.07,8.18-.42,3.46-1.42,6.74-2.99,9.77-.2.39-.38.78-.6,1.16-.51.87-1.06,1.72-1.66,2.55-.03.03-.05.07-.07.11-.2,2.38-.58,4.77-1.2,7.16-.25.95-.54,1.87-.85,2.79-.11.32-.23.64-.34.96-.21.58-.43,1.15-.66,1.71-.16.39-.32.77-.49,1.15-.2.45-.42.88-.63,1.32-.51,1.03-1.05,2.05-1.63,3.03-.05.08-.09.16-.13.23-.37.61-.75,1.2-1.15,1.78-.08.12-.16.24-.24.35-.87,1.26-1.79,2.47-2.78,3.62.02,0,.04-.02.06-.03-6.77,7.92-16.32,13.25-26.94,14.67l-13.22,50.41c29.94,7.85,60.57-10.03,68.42-39.94,4.55-17.36.4-34.94-9.72-48.19.82-3.21,1.19-6.54,1.08-9.9,14.79,15.39,21.5,37.85,15.71,59.95-.02.08-.05.17-.07.25,0,0,0,0,0,0-.03.12-.07.24-.11.37-.24.88-.5,1.75-.77,2.61-.15.48-.32.96-.48,1.43-.23.68-.48,1.35-.74,2.02-.2.52-.4,1.04-.62,1.56-.34.81-.69,1.61-1.05,2.4-.2.44-.41.87-.63,1.3-.33.67-.68,1.34-1.03,2-.23.42-.46.85-.69,1.27-.45.79-.92,1.58-1.4,2.35-.23.37-.47.74-.72,1.11-.45.68-.91,1.35-1.38,2.02-.22.31-.44.62-.66.92-.58.78-1.17,1.54-1.78,2.29-.25.31-.51.61-.76.92-.58.68-1.16,1.35-1.77,2-11.7,12.7-28.41,20.45-46.55,20.45-3.94,0-7.89-.38-11.78-1.12-1.29,4.92-2.78,9.98-4.5,15.11-6.89,20.58-15.81,38.11-24.35,49.18-6.29,8.16-12.37,12.81-17.27,12.59-1.13,2.57-2.31,5.17-3.59,7.79-3.38,6.9-6.98,13.24-10.61,18.86,58.4,6.48,114.7-29.72,131.52-88.05,4.1-14.2,5.5-28.54,4.53-42.48,16.84-15.31,23.29-40.02,14.31-62.35-4.86-12.08-13.47-21.5-23.95-27.53h28.66l-10.96,11.78c4.61,4.61,10.66,6.92,16.71,6.92s11.86-2.23,16.43-6.68h.41c15,0,27.2-12.77,27.2-28.47s-12.2-28.47-27.2-28.47h-4.79C276.96,10.57,256.72,0,234,0c-25.7,0-48.24,13.51-60.95,33.81,3.86-1.54,8.13-2.39,12.65-2.39,9.41,0,19.11,3.43,27.3,9.67ZM278.08,85.79c-3.34,0-6.55-.87-9.37-2.5l25.58-25.59c1.63,2.82,2.5,6.02,2.5,9.36,0,5-1.94,9.71-5.48,13.24-3.53,3.53-8.24,5.48-13.24,5.48ZM294.79,83.72c.47-.47.9-.96,1.32-1.46-.42.5-.85.99-1.32,1.46ZM297.18,80.87c-.17.24-.34.47-.52.7.18-.23.35-.47.52-.7ZM294.92,31.91c12.33,0,22.33,10.57,22.33,23.6,0,11.73-8.1,21.43-18.71,23.26,0,0,0,0,0,0,5.16-9.02,3.92-20.71-3.79-28.42h0c.06.06.11.13.18.19h0v-18.65ZM256.26,13.87c7.38,0,13.36,5.98,13.36,13.36s-5.98,13.36-13.36,13.36-13.36-5.98-13.36-13.36,5.98-13.36,13.36-13.36Z"/>
      <polygon class="cls-1" points="399.78 110.5 401.73 106.7 397.91 108.65 394.88 105.63 395.57 109.84 391.74 111.77 395.98 112.43 396.65 116.64 398.59 112.83 402.83 113.51 399.78 110.5"/>
      <polygon class="cls-1" points="455.11 112.83 457.05 116.64 457.72 112.43 461.96 111.77 458.13 109.84 458.82 105.63 455.79 108.65 451.97 106.7 453.92 110.5 450.87 113.51 455.11 112.83"/>
      <path class="cls-1" d="M426.85,126.3h1.58c.02-2.43.03-5.13.03-8.16,0-18.25-.32-30.25-1.61-36.33-1.29,6.08-1.61,18.08-1.61,36.33,0,3.03,0,5.73.03,8.16h1.58Z"/>
      <path class="cls-1" d="M426.85,184.77c38.57,0,69.85-31.27,69.85-69.85s-31.27-69.85-69.85-69.85-69.85,31.27-69.85,69.85,31.27,69.85,69.85,69.85ZM405.48,177.66c-.57.28-1.89-2.15-1.28-2.69,1.81-.91,5.36-2.06,6.18-2.29.2.99.53,1.92,1.01,2.81-2.14.62-4.88,1.69-5.91,2.17ZM420.34,179.19c-4.67,0-8.48-3.8-8.48-8.48s3.8-8.48,8.48-8.48c1.69,0,3.34.73,4.77,1.53-1.37.74-3.07,1.35-4.92,1.43-2.98.08-5.38,2.52-5.38,5.52s2.4,5.44,5.38,5.52c1.85.08,3.55.69,4.92,1.43-1.43.8-3.08,1.53-4.77,1.53ZM398.33,128.69c-6.98-.76-12.41-6.63-12.41-13.76,0-7.65,6.24-13.85,13.95-13.85,10.7,0,17.69,11.5,18.29,25.22h3.35c-.55-15.83-9.03-21.99-9.03-32.49,0-11.36,11.68-21.59,14.38-24.28,2.7,2.69,14.38,12.92,14.38,24.28,0,10.5-8.48,16.66-9.04,32.49h3.35c.6-13.72,7.59-25.22,18.29-25.22,7.7,0,13.95,6.2,13.95,13.85,0,7.13-5.43,13-12.41,13.76,2.59-5.2.35-10.51-4.72-11.52-4.47-.89-9.69,2.23-11.03,9.13h4.24c.41.55.69,1.23.69,2.01s-.28,1.45-.69,2h-34.03c-.41-.55-.69-1.23-.69-2s.28-1.45.69-2.01h4.24c-1.33-6.89-6.55-10.02-11.03-9.13-5.07,1.01-7.31,6.32-4.72,11.52ZM433.34,162.23c2.42,0,4.6,1.03,6.15,2.67-1.51.25-3.01.28-4.36.28-2.65,0-3.1-.15-6.17,1.72-3.29,1.99-6.6,2.98-10.15,2.98-.91,0-1.63-.03-2.22-.06.38-1.62,1.87-2.88,3.64-2.94,1.93-.07,3.95-.71,5.67-1.63,4.11-2.19,5.12-3,7.44-3ZM415.52,148.31c3.41-4.32,5.17-9.16,5.77-15.2h4.1c.21,7.8.65,12.03,1.47,16.28.82-4.25,1.26-8.48,1.47-16.28h4.1c.6,6.04,2.36,10.88,5.77,15.2,0,0-4.74,5.59-11.33,8.89-6.59-3.3-11.33-8.89-11.33-8.89ZM435.81,133.12h4.07c.82,2.73,2.56,4.8,5.02,5.48,1.99.55,4.07.05,5.9-1.17,1.29,3.49-1.08,7.63-5.85,7.63-4.13,0-8.04-3.74-9.14-11.94ZM402.9,137.42c1.83,1.22,3.91,1.72,5.9,1.17,2.46-.68,4.2-2.75,5.02-5.48h4.07c-1.1,8.2-5,11.94-9.14,11.94-4.78,0-7.15-4.14-5.85-7.63ZM433.34,179.19c-2.32,0-3.33-.81-7.44-3-1.72-.93-3.74-1.57-5.67-1.63-1.77-.06-3.26-1.32-3.64-2.94.59-.04,1.31-.06,2.22-.06,3.55,0,6.86.98,10.15,2.98,3.07,1.86,3.52,1.72,6.17,1.72,1.35,0,2.84.04,4.36.28-1.55,1.63-3.72,2.67-6.15,2.67ZM448.07,177.61c-1.8-.79-3.61-1.46-5.4-2.01-1.07-.33-3.09-1.06-7.54-1.04-1.26,0-2.2.06-2.92-.22-1.02-.32-3.23-1.84-4.65-2.47,1.42-.18,4.09-.25,6.65-.23,5.59-.03,9.39,1.13,9.39,1.13,1.93.6,3.82,1.3,5.67,2.11.82.38-.62,3.04-1.21,2.74ZM387.08,75.15c10.62-10.62,24.75-16.48,39.77-16.48s29.15,5.85,39.77,16.48c10.62,10.62,16.48,24.75,16.48,39.77s-5.85,29.15-16.48,39.77c-6.55,6.55-14.42,11.28-23.02,13.95,0,0-3.79,1.16-9.39,1.13-2.56.02-5.23-.05-6.65-.23,1.42-.62,3.63-2.14,4.65-2.47.71-.29,1.65-.23,2.92-.22,4.44.02,6.46-.71,7.54-1.04,7.69-2.34,15.64-7.01,21.85-13.22,10.06-10.06,15.6-23.44,15.6-37.67s-5.54-27.61-15.6-37.67c-10.06-10.06-23.44-15.6-37.67-15.6s-27.61,5.54-37.67,15.6c-10.06,10.06-15.6,23.44-15.6,37.67s5.54,27.61,15.6,37.67c6.3,6.3,13.91,10.83,22.2,13.33-.47.87-.81,1.81-1.01,2.81-8.71-2.65-16.69-7.42-23.31-14.04-10.62-10.62-16.47-24.75-16.47-39.77s5.85-29.15,16.47-39.77Z"/>
      <path class="cls-1" d="M634.14,232.84h2.31c1.84,0,3.3.49,4.37,1.47,1.07.98,1.93,2.6,2.58,4.85l3.3,12.02c1.19,4.39,3.5,8,6.95,10.82,3.44,2.82,7.54,4.23,12.29,4.23,4.1,0,7.68-1.01,10.73-3.03,3.06-2.02,5.42-4.75,7.08-8.19,1.66-3.45,2.49-7.27,2.49-11.49s-.83-8.36-2.49-11.89c-1.66-3.53-4.1-6.34-7.31-8.42-3.2-2.08-7.04-3.12-11.49-3.12v12.83c3.33,0,5.82.98,7.48,2.94,1.66,1.96,2.49,4.51,2.49,7.66s-.85,5.43-2.54,7.21c-1.69,1.78-3.87,2.67-6.55,2.67-2.43,0-4.39-.67-5.88-2-1.49-1.34-2.61-3.43-3.39-6.28l-2.49-9.71c-1.31-5.05-3.5-8.91-6.59-11.58-3.09-2.67-7.42-4.01-13-4.01h-12.03v45.69h11.67v-32.69Z"/>
      <path class="cls-1" d="M677.96,278.17c-5.52-4.4-13.63-6.59-24.32-6.59s-18.79,2.2-24.32,6.59c-5.52,4.39-8.28,10.93-8.28,19.59s2.76,15.2,8.28,19.6c5.52,4.39,13.63,6.59,24.32,6.59s18.79-2.2,24.32-6.59c5.52-4.4,8.28-10.93,8.28-19.6s-2.76-15.2-8.28-19.59ZM669.99,307.83c-3.47,2.14-8.92,3.21-16.34,3.21s-12.87-1.07-16.34-3.21c-3.47-2.14-5.21-5.49-5.21-10.07s1.74-7.93,5.21-10.07c3.47-2.14,8.92-3.21,16.34-3.21s12.87,1.07,16.34,3.21c3.47,2.14,5.21,5.49,5.21,10.07s-1.74,7.93-5.21,10.07Z"/>
      <path class="cls-1" d="M676.45,329.3c-3.2-2.08-7.04-3.12-11.49-3.12v12.83c3.33,0,5.82.98,7.48,2.94,1.66,1.96,2.49,4.51,2.49,7.66s-.85,5.43-2.54,7.21c-1.69,1.78-3.87,2.67-6.55,2.67-2.43,0-4.39-.67-5.88-2-1.49-1.34-2.61-3.43-3.39-6.28l-2.49-9.71c-1.31-5.05-3.5-8.91-6.59-11.58-3.09-2.67-7.42-4.01-13-4.01h-12.03v45.69h11.67v-32.69h2.31c1.84,0,3.3.49,4.37,1.47,1.07.98,1.93,2.6,2.58,4.85l3.3,12.02c1.19,4.39,3.5,8,6.95,10.82,3.44,2.82,7.54,4.23,12.29,4.23,4.1,0,7.68-1.01,10.73-3.03,3.06-2.02,5.42-4.75,7.08-8.19,1.66-3.45,2.49-7.27,2.49-11.49s-.83-8.36-2.49-11.89c-1.66-3.53-4.1-6.34-7.31-8.42Z"/>
      <path class="cls-1" d="M651.87,398.05c0,3.44-.86,6.1-2.58,7.97-1.72,1.87-4.04,2.81-6.95,2.81s-5.38-.98-7.22-2.94c-1.84-1.96-2.76-4.54-2.76-7.75,0-2.73.59-5.02,1.78-6.86,1.19-1.84,2.67-3,4.45-3.47v-13.27c-5.29.54-9.53,2.84-12.74,6.9-3.21,4.07-4.81,9.49-4.81,16.26,0,4.81.92,9.02,2.76,12.65,1.84,3.62,4.39,6.43,7.66,8.42,3.27,1.99,7.01,2.98,11.22,2.98s7.6-.91,10.69-2.71c3.09-1.81,5.49-4.34,7.22-7.57,1.72-3.24,2.58-6.93,2.58-11.09v-10.78h9.98v29.04h11.67v-41.51h-32.95v20.93Z"/>
      <path class="cls-1" d="M319.86,232.14h16.68c1.81,0,3.15.35,4,1.06.85.71,1.28,1.83,1.28,3.36v1.19h-10.04c-5.22,0-9.2,1.28-11.95,3.83-2.75,2.55-4.13,5.93-4.13,10.13s1.45,7.4,4.34,9.79c2.89,2.38,6.81,3.57,11.74,3.57,2.84,0,5.37-.48,7.62-1.45,2.24-.96,3.96-2.3,5.15-4,.06,1.31.52,2.33,1.4,3.06.88.74,2.06,1.11,3.53,1.11h8.51v-9.44h-3.74c-.8,0-1.19-.4-1.19-1.19v-17.27c0-4.48-1.45-7.96-4.34-10.42-2.89-2.47-6.95-3.7-12.17-3.7h-16.68v10.38ZM344.72,247.89c0,2.44-.78,4.31-2.34,5.62-1.56,1.31-3.59,1.96-6.08,1.96-1.87,0-3.32-.37-4.34-1.11-1.02-.74-1.53-1.79-1.53-3.15,0-1.14.43-2.09,1.28-2.85.85-.77,2.07-1.15,3.66-1.15h9.36v.68Z"/>
      <path class="cls-1" d="M362.57,221.76v42.03h11.91v-25.19c0-2.27.55-4.07,1.66-5.4,1.11-1.33,2.6-2,4.47-2s3.39.6,4.38,1.79c.99,1.19,1.49,2.95,1.49,5.27v25.53h11.91v-25.19c0-2.27.54-4.07,1.62-5.4,1.08-1.33,2.55-2,4.42-2s3.4.6,4.42,1.79c1.02,1.19,1.53,2.95,1.53,5.27v25.53h11.91v-26.38c0-5.33-1.36-9.49-4.08-12.47-2.72-2.98-6.52-4.47-11.4-4.47s-9.08,2.16-11.91,6.47c-1.14-2.1-2.65-3.7-4.55-4.81-1.9-1.11-4.16-1.66-6.76-1.66-4.65,0-8.17,1.76-10.55,5.28v-4h-10.47Z"/>
      <path class="cls-1" d="M458.98,214.36c3.06,0,5.67.84,7.83,2.51,2.16,1.67,3.49,4.13,4,7.36h12.68c-.85-6.92-3.46-12.21-7.83-15.87-4.37-3.66-9.93-5.49-16.68-5.49-8.51,0-15.23,2.65-20.17,7.96-4.94,5.3-7.4,13.06-7.4,23.27,0,6.81,1.15,12.54,3.45,17.19,2.3,4.65,5.5,8.13,9.61,10.42,4.11,2.3,8.86,3.45,14.25,3.45,6.81,0,12.37-1.97,16.68-5.91,4.31-3.94,6.98-9.37,8-16.3h-12.68c-.51,3.4-1.82,6.04-3.91,7.91-2.1,1.87-4.79,2.81-8.08,2.81-4.42,0-7.97-1.59-10.64-4.77-2.67-3.18-4-8.14-4-14.89,0-13.1,4.96-19.66,14.89-19.66Z"/>
      <path class="cls-1" d="M489.86,232.14h16.68c1.81,0,3.15.35,4,1.06.85.71,1.28,1.83,1.28,3.36v1.19h-10.04c-5.22,0-9.2,1.28-11.95,3.83-2.75,2.55-4.13,5.93-4.13,10.13s1.45,7.4,4.34,9.79c2.89,2.38,6.81,3.57,11.74,3.57,2.84,0,5.37-.48,7.62-1.45,2.24-.96,3.96-2.3,5.15-4,.06,1.31.52,2.33,1.4,3.06.88.74,2.06,1.11,3.53,1.11h8.51v-9.44h-3.74c-.8,0-1.19-.4-1.19-1.19v-17.27c0-4.48-1.45-7.96-4.34-10.42-2.89-2.47-6.95-3.7-12.17-3.7h-16.68v10.38ZM511.81,247.89c0,2.44-.78,4.31-2.34,5.62-1.56,1.31-3.59,1.96-6.08,1.96-1.87,0-3.32-.37-4.34-1.11-1.02-.74-1.53-1.79-1.53-3.15,0-1.14.43-2.09,1.28-2.85.85-.77,2.07-1.15,3.66-1.15h9.36v.68Z"/>
      <path class="cls-1" d="M544.48,238.61c0-2.27.55-4.07,1.66-5.4,1.11-1.33,2.6-2,4.47-2s3.39.6,4.38,1.79c.99,1.19,1.49,2.95,1.49,5.27v25.53h11.91v-25.19c0-2.27.54-4.07,1.62-5.4,1.08-1.33,2.55-2,4.42-2s3.4.6,4.42,1.79c1.02,1.19,1.53,2.95,1.53,5.27v25.53h11.91v-26.38c0-5.33-1.36-9.49-4.08-12.47-2.72-2.98-6.52-4.47-11.4-4.47s-9.08,2.16-11.91,6.47c-1.14-2.1-2.65-3.7-4.55-4.81-1.9-1.11-4.16-1.66-6.76-1.66-4.65,0-8.17,1.76-10.55,5.28v-4h-10.47v42.03h11.91v-25.19Z"/>
      <path class="cls-1" d="M348.96,297.95c0,4.45.75,8.19,2.25,11.23,1.5,3.04,3.59,5.31,6.28,6.81,2.69,1.5,5.79,2.25,9.31,2.25,4.45,0,8.08-1.29,10.89-3.86,2.82-2.58,4.56-6.12,5.23-10.64h-8.28c-.33,2.22-1.19,3.95-2.56,5.17-1.37,1.22-3.13,1.83-5.28,1.83-2.89,0-5.21-1.04-6.95-3.11-1.74-2.07-2.61-5.32-2.61-9.73,0-8.56,3.24-12.84,9.73-12.84,2,0,3.71.55,5.11,1.64,1.41,1.09,2.28,2.7,2.61,4.81h8.28c-.56-4.52-2.26-7.98-5.11-10.37-2.85-2.39-6.48-3.58-10.89-3.58-5.56,0-9.95,1.73-13.17,5.2-3.22,3.46-4.84,8.53-4.84,15.2Z"/>
      <path class="cls-1" d="M408.51,290.89c-2.2-1.22-4.72-1.83-7.53-1.83s-5.33.61-7.53,1.83c-2.21,1.22-3.92,2.94-5.14,5.14-1.22,2.21-1.83,4.74-1.83,7.59s.61,5.44,1.83,7.64c1.22,2.2,2.94,3.91,5.14,5.11,2.2,1.2,4.72,1.81,7.53,1.81s5.33-.6,7.53-1.81c2.21-1.2,3.92-2.91,5.14-5.11,1.22-2.2,1.83-4.75,1.83-7.64s-.61-5.38-1.83-7.59c-1.22-2.2-2.94-3.92-5.14-5.14ZM405.68,309.1c-1.2,1.39-2.77,2.08-4.7,2.08s-3.49-.69-4.7-2.08c-1.2-1.39-1.81-3.21-1.81-5.48s.6-4.08,1.81-5.47c1.2-1.39,2.77-2.08,4.7-2.08s3.49.69,4.7,2.08c1.2,1.39,1.8,3.21,1.8,5.47s-.6,4.09-1.8,5.48Z"/>
      <path class="cls-1" d="M421.22,278.44v33.18c0,2.04.49,3.5,1.47,4.39.98.89,2.55,1.33,4.7,1.33h6.34v-6.78h-3c-.63,0-1.08-.14-1.33-.42-.26-.28-.39-.71-.39-1.31v-30.41h-7.78Z"/>
      <path class="cls-1" d="M458.26,290.89c-2.2-1.22-4.72-1.83-7.53-1.83s-5.33.61-7.53,1.83c-2.21,1.22-3.92,2.94-5.14,5.14-1.22,2.21-1.83,4.74-1.83,7.59s.61,5.44,1.83,7.64c1.22,2.2,2.94,3.91,5.14,5.11s4.72,1.81,7.53,1.81,5.33-.6,7.53-1.81c2.21-1.2,3.92-2.91,5.14-5.11,1.22-2.2,1.83-4.75,1.83-7.64s-.61-5.38-1.83-7.59c-1.22-2.2-2.94-3.92-5.14-5.14ZM455.43,309.1c-1.2,1.39-2.77,2.08-4.7,2.08s-3.49-.69-4.7-2.08c-1.2-1.39-1.81-3.21-1.81-5.48s.6-4.08,1.81-5.47c1.2-1.39,2.77-2.08,4.7-2.08s3.49.69,4.7,2.08c1.2,1.39,1.81,3.21,1.81,5.47s-.6,4.09-1.81,5.48Z"/>
      <path class="cls-1" d="M510.04,317.35v-17.23c0-3.48-.89-6.2-2.67-8.14-1.78-1.95-4.26-2.92-7.45-2.92s-5.93,1.41-7.78,4.23c-.74-1.37-1.73-2.42-2.97-3.14-1.24-.72-2.72-1.08-4.42-1.08-3.04,0-5.34,1.15-6.89,3.45v-2.61h-6.84v27.46h7.78v-16.45c0-1.48.36-2.66,1.08-3.53.72-.87,1.7-1.31,2.92-1.31s2.21.39,2.86,1.17.97,1.93.97,3.45v16.67h7.78v-16.45c0-1.48.35-2.66,1.06-3.53.7-.87,1.67-1.31,2.89-1.31s2.22.39,2.89,1.17c.67.78,1,1.93,1,3.45v16.67h7.78Z"/>
      <path class="cls-1" d="M524.82,278.44h-7.78v38.91h6.84v-2.67c.89,1.11,2.08,1.97,3.59,2.59,1.5.61,3.14.92,4.92.92,2.59,0,4.88-.6,6.86-1.81,1.98-1.2,3.53-2.91,4.64-5.11,1.11-2.2,1.67-4.75,1.67-7.64s-.56-5.44-1.67-7.64c-1.11-2.2-2.66-3.91-4.64-5.11-1.98-1.2-4.27-1.81-6.86-1.81-1.56,0-3,.26-4.34.78-1.33.52-2.41,1.24-3.22,2.17v-13.56ZM526.46,298.15c1.17-1.39,2.71-2.08,4.64-2.08s3.48.69,4.67,2.08c1.19,1.39,1.78,3.21,1.78,5.47s-.59,4.09-1.78,5.48c-1.19,1.39-2.74,2.08-4.67,2.08s-3.47-.69-4.64-2.08c-1.17-1.39-1.75-3.21-1.75-5.48s.58-4.08,1.75-5.47Z"/>
      <rect class="cls-1" x="551.56" y="289.89" width="7.78" height="27.46"/>
      <rect class="cls-1" x="551.34" y="278.55" width="8.17" height="7.23"/>
      <path class="cls-1" d="M575.18,300.34c-3.41,0-6.01.83-7.81,2.5-1.8,1.67-2.7,3.87-2.7,6.61s.95,4.84,2.84,6.39c1.89,1.56,4.45,2.33,7.67,2.33,1.85,0,3.51-.32,4.97-.95,1.46-.63,2.59-1.5,3.36-2.61.04.85.34,1.52.92,2,.57.48,1.34.72,2.31.72h5.56v-6.17h-2.45c-.52,0-.78-.26-.78-.78v-11.28c0-2.93-.95-5.2-2.83-6.81-1.89-1.61-4.54-2.42-7.95-2.42h-10.9v6.78h10.9c1.18,0,2.06.23,2.61.69.56.46.83,1.19.83,2.2v.78h-6.56ZM581.74,306.96c0,1.59-.51,2.82-1.53,3.67-1.02.85-2.34,1.28-3.97,1.28-1.22,0-2.17-.24-2.84-.72-.67-.48-1-1.17-1-2.06,0-.74.28-1.36.83-1.86.56-.5,1.35-.75,2.39-.75h6.11v.44Z"/>
      <path class="cls-1" d="M509.63,342.49h68.39l35.82,79.07,7.83.15-38.92-86.53h-77.84l-17.75,39.43c-11.11-14.19-27.1-24.36-45.46-27.97.68,1.16,1.09,2.48,1.13,3.88,1.07,30.97-31.95,36.93-42.68,71.23h11.59c11.36-16.89,33.35-28.98,35.64-62.87.33-4.86,6.21-7.15,9.73-3.77,13.21,12.69,16.24,37.18,6.89,60.14-.92,2.25-1.96,4.4-3.05,6.5h42.47c0-14.74-4.18-28.5-11.4-40.17l.34-.68,17.28-38.4Z"/>
      <path class="cls-1" d="M411.88,346.66c-20.62,4.09-38.25,16.46-49.3,33.5l-63.43-59.45-65.82,61.92-31.76-59.72-53.2,100.06h78.49l8.98-32.66,63.32-59.57,59.64,55.91c-5.44,10.52-8.52,22.45-8.52,35.11h27.81c-3.35-12.72-1.93-28.31,4.73-43.06,6.64-14.69,17.35-26.07,29.04-32.02Z"/>
      <path class="cls-1" d="M673.75,445.96l-28.42,28.47v-24.92c0-2.04-1.23-3.88-3.11-4.65-1.88-.78-4.05-.35-5.49,1.1l-28.42,28.47v-24.92c0-2.04-1.23-3.88-3.11-4.65-1.88-.78-4.05-.35-5.49,1.1l-28.42,28.47v-24.92c0-2.04-1.23-3.88-3.11-4.65-1.88-.78-4.05-.35-5.49,1.1l-28.42,28.47v-24.92c0-2.04-1.23-3.88-3.11-4.65-1.88-.78-4.05-.35-5.49,1.1l-28.43,28.47v-24.92c0-2.04-1.23-3.88-3.11-4.65-1.88-.78-4.05-.35-5.49,1.1l-28.42,28.47v-24.92c0-2.04-1.23-3.88-3.11-4.65-1.88-.78-4.05-.35-5.49,1.1l-28.42,28.47v-24.92c0-2.04-1.23-3.88-3.11-4.65-1.88-.78-4.05-.35-5.49,1.1l-28.42,28.47v-24.92c0-2.04-1.23-3.88-3.11-4.65-1.88-.78-4.05-.35-5.49,1.1l-28.42,28.47v-24.92c0-2.04-1.23-3.88-3.11-4.65-1.88-.78-4.05-.35-5.49,1.1l-28.43,28.47v-24.92c0-2.04-1.23-3.88-3.11-4.65-1.88-.78-4.05-.35-5.49,1.1l-28.43,28.47v-24.92c0-2.04-1.23-3.88-3.11-4.65-1.88-.78-4.05-.35-5.49,1.1l-28.42,28.47v-24.92c0-2.04-1.23-3.88-3.11-4.65-1.88-.78-4.05-.35-5.49,1.1l-28.42,28.47v-24.92c0-2.04-1.23-3.88-3.11-4.65-1.88-.78-4.05-.35-5.49,1.1l-28.42,28.47v-24.92c0-2.04-1.23-3.88-3.11-4.65-1.88-.78-4.05-.35-5.49,1.1l-37.03,37.09c-1.97,1.97-1.96,5.16,0,7.12,1.97,1.97,5.16,1.97,7.12,0l28.42-28.47v24.92c0,2.04,1.23,3.88,3.11,4.65,1.88.77,4.05.35,5.49-1.1l28.42-28.47v24.92c0,2.04,1.23,3.88,3.11,4.65,1.88.77,4.05.35,5.49-1.1l28.42-28.47v24.92c0,2.04,1.23,3.88,3.11,4.65,1.88.77,4.05.35,5.49-1.1l28.42-28.47v24.92c0,2.04,1.23,3.88,3.11,4.65,1.88.77,4.05.35,5.49-1.1l28.42-28.47v24.92c0,2.04,1.23,3.88,3.11,4.65,1.88.77,4.05.35,5.49-1.1l28.42-28.47v24.92c0,2.04,1.23,3.88,3.11,4.65,1.88.77,4.05.35,5.49-1.1l28.42-28.47v24.92c0,2.04,1.23,3.88,3.11,4.65,1.88.77,4.05.35,5.49-1.1l28.43-28.47v24.92c0,2.04,1.23,3.88,3.11,4.65,1.88.77,4.05.35,5.49-1.1l28.42-28.47v24.92c0,2.04,1.23,3.88,3.11,4.65,1.88.77,4.05.35,5.49-1.1l28.42-28.47v24.92c0,2.04,1.23,3.88,3.11,4.65,1.88.77,4.05.35,5.49-1.1l28.42-28.47v24.92c0,2.04,1.23,3.88,3.11,4.65,1.88.77,4.05.35,5.49-1.1l28.42-28.47v24.92c0,2.04,1.23,3.88,3.11,4.65,1.88.77,4.05.35,5.49-1.1l28.43-28.47v24.92c0,2.04,1.23,3.88,3.11,4.65.62.26,1.28.38,1.92.38,1.31,0,2.6-.51,3.56-1.48l28.43-28.47v24.92c0,2.04,1.23,3.88,3.11,4.65,1.88.77,4.05.35,5.49-1.1l37.02-37.09c1.97-1.97,1.96-5.16,0-7.12-1.97-1.97-5.16-1.97-7.12,0Z"/>
      <path class="cls-1" d="M308.15,271.28c1.64-4,2.46-9.37,2.46-16.1v-50.94h-15.1v50.94c0,4.26-.77,7.41-2.31,9.43-1.54,2.02-3.92,3.03-7.13,3.03h-16.99v15.15h16.99c5.94,0,10.7-.91,14.26-2.75,3.57-1.83,6.17-4.75,7.81-8.75Z"/>
      <path class="cls-1" d="M148.88,299.14c-6.01.86-12.07,1.32-18.15,1.32-1.29,0-2.58-.03-3.87-.07-.59,17.16-4,37.31-10.4,58.51-5.9,19.51-13.76,37.72-22.47,52.43l-2.68,10.95c6.56-.87,15.89-6.58,23.64-17.46,11.57-16.24,21.83-41.32,28.15-68.81,2.91-12.67,4.85-25.14,5.77-36.87Z"/>
      <path class="cls-1" d="M76.74,423.53c12.64-15.42,24.57-39.75,32.74-66.75,6.43-21.27,9.56-40.75,10.09-56.82-2.32-.2-4.63-.49-6.94-.81-2.84,3.89-5.64,7.28-8.31,10.02-2.34,2.4-4.57,4.31-6.63,5.66-2.59,3.39-5.1,5.79-7.41,7.06l-35.48,117.34c6.22-.48,13.98-5.98,21.94-15.69Z"/>
      <path class="cls-1" d="M14.57,387.1c7.69-4.89,16.98-13.96,25.66-25.65,1.52-2.04,2.93-4.09,4.3-6.13-4.83,3.44-9.14,4.48-12.3,2.48l14.2-30.69L0,389.67c2.87,2.67,8.16,1.5,14.57-2.57Z"/>
      <path class="cls-1" d="M139.55,175.91l-30.96,92.46c5.18,1.74,12.04-3.01,19.17-12.25,3.46-4.48,6.97-10.04,10.4-16.42l19.96-59.63c-5.43-.4-10.79-1.48-15.99-3.27l-2.58-.89Z"/>
      <path class="cls-1" d="M169.71,172.52l10.96-41.78c-3.01-.14-6.01-.58-8.95-1.35l-7.07-1.85.76-2.9c-1.74-.01-3.47-.17-5.19-.39l-15.71,45.65c8.38,2.88,16.97,3.66,25.2,2.63Z"/>
      <path class="cls-1" d="M166.66,56.6l-4.49-3.42-.36-.27-35.06,50.42c6.51,4.7,14.08,6.83,21.53,6.68l18.38-53.41Z"/>
      <path class="cls-1" d="M154.15,115.38c4.38,1.51,8.84,2.08,13.19,1.88l13.15-50.13-7.72-5.87-18.63,54.12Z"/>
      <path class="cls-1" d="M217.04,96.94c.15-.57.24-1.15.36-1.72l-2.52-1.92-28.08-21.37-13.21,50.38c19.02,4.99,38.47-6.37,43.46-25.37Z"/>
    </g>
  </g>
</svg>