<?xml version="1.0" encoding="UTF-8"?>
<svg id="Capa_2" data-name="Capa 2" xmlns="http://www.w3.org/2000/svg" viewBox="0 0 207.35 273.44">
  <defs>
    <style>
      .cls-1 {
        fill: #fff;
        stroke: #fff;
        stroke-miterlimit: 10;
        stroke-width: 3px;
      }
    </style>
  </defs>
  <g id="Capa_1-2" data-name="Capa 1">
    <g>
      <path class="cls-1" d="M162.78,22.68h19.4c.15,0,2.09,1.94,2.09,2.09v20h18.21c1.86,0,3.7,2.54,3.31,4.45l-.34,221.22-1.49,1.49H46.37c-.36-.33-1.8-1.61-1.8-1.78v-20h-18.81c-.6,0-2.69-2.09-2.69-2.69v-18.81H4.86c-1.86,0-3.7-2.54-3.31-4.45L1.89,2.99l1.49-1.49h157.6c.36.33,1.8,1.61,1.8,1.78v19.4ZM156.22,7.76H8.15v214.34h148.07V7.76ZM177.71,29.25h-14.93v196.73c0,.93-2.43,2.69-3.28,2.69H29.64v14.93h148.07V29.25ZM199.2,51.34h-14.93v196.13c0,.6-2.09,2.69-2.69,2.69H51.13v15.52h148.07V51.34Z"/>
      <path class="cls-1" d="M75.49,22.26c46.32-4.49,78.94,43.59,55.75,84.41-25.25,44.45-92.96,34.45-104.18-15.44-7.26-32.27,15.07-65.74,48.43-68.97ZM120.98,110.45c12.04-15.98,14.97-36.28,5.91-54.55C99.84,1.34,13.96,35.91,35.17,95.67c.94,2.66,6.43,13.73,8.51,14.78.93.46.82-.41,1.02-.76,4.8-8.23,10.2-14.05,20.44-14.79,7.98-.58,32.34-1,39.13.92,5.23,1.48,10.64,5.81,13.63,10.25.64.94,1.91,5.34,3.07,4.38ZM64.13,101.65c-7.14,1.03-13.15,7.5-14.67,14.4,17.94,16.55,47.53,16.55,65.46,0-1.31-6.33-7.16-12.96-13.59-14.29-5.42-1.12-31.33-.95-37.19-.11Z"/>
      <path class="cls-1" d="M28.59,177.78c-1.97-1.98-.41-6.73,3.11-5.85h101.55c4.15.55,4.43,6.14,0,6.62H31.71c-.93-.09-2.45-.11-3.11-.77Z"/>
      <path class="cls-1" d="M28.59,150c.66-.66,2.19-.69,3.11-.76h101.56c4.85.62,3.9,6.5-.62,6.6l-101.54.02c-2.83.09-4.39-3.97-2.51-5.86Z"/>
      <path class="cls-1" d="M53.67,200.46c-1.88-1.89-.32-5.95,2.51-5.86,16.22,1.45,35.54-1.83,51.39.02,4.98.58,5.14,6.03.62,6.61-16.65-1.11-34.95,1.37-51.4,0-.93-.08-2.46-.1-3.11-.76Z"/>
      <path class="cls-1" d="M79.66,40.76c4.99-.54,10.9.82,15.02,3.75,15.57,11.08,11.77,43.12-9.28,45.57-31.64,3.69-34.17-46.24-5.74-49.32ZM80.25,47.32c-20.24,2.46-17.92,39.34,4.57,36.21,11.79-1.64,13.56-14.36,12.24-24.08-1.07-7.83-9.34-13.04-16.81-12.14Z"/>
    </g>
  </g>
</svg>