<?xml version="1.0" encoding="UTF-8"?>
<svg id="Capa_2" data-name="Capa 2" xmlns="http://www.w3.org/2000/svg" viewBox="0 0 253.46 253.27">
  <defs>
    <style>
      .cls-1 {
        fill: #fff;
      }
    </style>
  </defs>
  <g id="Capa_1-2" data-name="Capa 1">
    <g>
      <path class="cls-1" d="M.15,115.83C2.36,83.25,20.3,50.43,45.13,29.56,96.92-13.99,174.97-8.84,220.4,41.17c2.2,2.42,8.39,9.2,8.39,12.12,0,3.63-3.65,6.22-7.04,4.81-2.03-.84-8.78-9.93-10.99-12.24-1.31-1.37-8.6-8.42-9.66-8.63-3.41-.65-10,.78-13.34,1.96-16.32,5.78-24.72,23.4-19.66,39.94,7.42,24.23,41.94,21.36,39.19,52.75-1.52,17.35-18.34,20.31-19.26,33.63-.11,1.58-.18,4.35.76,5.65,1.6,2.22,2.25-.27,3.24-1.16,11.11-10.03,27.5-8.07,35.13,4.81l2.88,6.26c11.75-23.61,15.95-49.63,11.22-75.73-.55-3.02-3.06-10.67-2.8-12.96.47-4.15,6.02-5.81,8.85-2.97,1.81,1.82,3.83,12.39,4.35,15.43,6.1,35.88-3.39,72.96-26.04,101.21,14.3,6.29,26.32,21.22,27.66,37.08.32,3.8.72,8.06-2.96,10.13H.15v-11.37c2.92-16.04,12.84-29.07,27.67-35.84-12-15.12-20.58-32.87-24.86-51.76L.15,137.09c.35-6.96-.47-14.35,0-21.26ZM43.16,46.12h11.62c11.32,0,22.59,12.24,23.84,23.13,2.46,21.43-13.66,22.91-21.82,37.23-3.12,5.47-4.33,11.67-7.45,17.27-7.6,13.66-21.41,22.42-36.78,24.77,1.54,11.41,5.94,22.34,11.07,32.58,4.54-18.21,27.52-23.69,39.54-9.02l6.44-3.35-3.65-5.76c-16.19-41.43,47.66-51.49,42.39-6.41-.48,4.07-2.89,9.12-5.87,11.92l6.67,3.6c9-11.19,26.04-11.23,35.08,0l6.44-3.35-3.65-5.76c-4.34-11.22-2.94-25.55,7.88-32.52,13.2-8.49,30.44-1.5,34.07,13.55,3.97-2.14,7.3-7.73,7.85-12.17,2.25-18.25-15.59-21.37-26.38-30.86-22.82-20.08-17.09-57.51,10.44-70.12l8.08-3.03c-8.95-4.9-17.98-9.51-27.8-12.5-32.19-9.78-67.23-5.44-95.75,12.29-8.2,5.1-15.93,11.24-22.29,18.5ZM34.11,56.6c-1.02.31-5.59,7.43-6.48,8.85-11.99,19.11-18.57,43.41-17.1,65.96.46,7.11-1.63,7.7,6.54,5.54,27.47-7.28,22.95-31.08,40.17-47.33,2.5-2.36,6.08-4.32,8.17-7.16,7.47-10.12.68-24.73-11.62-25.95-6.19-.61-13.38.37-19.68.09ZM84.06,137.21c-13.67,2.15-13.62,25.69-.49,27.94,20.16,3.46,19.59-30.95.49-27.94ZM165.14,137.21c-14.95,2.35-13.74,30.53,4.29,28.02,15.14-2.11,13.17-30.76-4.29-28.02ZM45.04,173.78c-18.11.98-14.17,33.51,4.16,27.93,13.5-4.11,11.08-28.76-4.16-27.93ZM126.12,173.78c-18.11.98-14.17,33.51,4.16,27.93,13.5-4.11,11.08-28.76-4.16-27.93ZM207.2,173.78c-18.11.98-14.17,33.51,4.16,27.93,13.5-4.11,11.08-28.76-4.16-27.93ZM110.39,205.8c-5.98-6.95-6.84-15.1-5.63-24-10.32-7.67-26.48-7.45-37.12-.25,1.03,9.01.42,17.2-5.69,24.25,9.9,3.39,17.49,10.55,23.01,19.27.49.78.74,2.99,1.74,1.69.95-1.24,1.97-3.91,3.22-5.59,5.17-6.9,12.32-12.46,20.47-15.37ZM191.47,205.8c-5.98-6.95-6.84-15.1-5.63-24-10.32-7.67-26.48-7.45-37.12-.25,1.03,9.01.42,17.2-5.69,24.25,9.9,3.39,17.49,10.55,23.01,19.27.49.78.74,2.99,1.74,1.69s1.97-3.91,3.22-5.59c5.17-6.9,12.32-12.46,20.47-15.37ZM80.73,243.38c-3.59-23.24-27.56-36.87-49.42-27.42-11.12,4.81-18.97,15.48-20.78,27.42h70.2ZM161.81,243.38c-3.59-23.24-27.56-36.87-49.42-27.42-11.12,4.81-18.97,15.48-20.78,27.42h70.2ZM242.89,243.38c-3.59-23.24-27.56-36.87-49.42-27.42-11.12,4.81-18.97,15.48-20.78,27.42h70.2Z"/>
      <path class="cls-1" d="M233.85,67.49c9.17-2.1,8.58,12.34-.38,9.56-4.14-1.29-3.96-8.57.38-9.56Z"/>
      <path class="cls-1" d="M117.2,58.61c7.98-1.08,16,1.49,21.09,7.82,7.4,9.21,6.59,31-.71,40.24-18.38,23.25-54.03,3.78-43.09-23.81,3.88-9.77,11.31-22.71,22.71-24.25ZM129.5,72.01c-4.52-4.52-12.24-4.46-16.88-.17-2.21,2.05-9.39,15.5-9.66,18.52-1.58,17.3,19.35,22.25,27.61,8.33,3.61-6.08,4.22-21.38-1.07-26.67Z"/>
    </g>
  </g>
</svg>