<?xml version="1.0" encoding="UTF-8"?>
<svg id="Capa_2" data-name="Capa 2" xmlns="http://www.w3.org/2000/svg" viewBox="0 0 91.88 23.57">
  <defs>
    <style>
      .cls-1 {
        fill: #2476b6;
      }
    </style>
  </defs>
  <g id="Capa_1-2" data-name="Capa 1">
    <g>
      <path class="cls-1" d="M56.72,22.54c-1.42,1.42-3.56,1.28-5.05.05-1.97-1.63-3.74-4.01-5.7-5.71-1.94,1.66-3.69,4.05-5.64,5.64-3.79,3.08-8.22-1.36-5.03-5.17,1.61-1.93,3.9-3.65,5.57-5.57-1.7-1.97-4.08-3.73-5.71-5.7-2.94-3.57,1.32-8.27,5.37-4.83,1.88,1.59,3.56,3.79,5.43,5.44,1.92-1.65,3.64-3.99,5.57-5.57,3.84-3.15,8.19,1.29,5.17,5.03-1.6,1.98-4.02,3.63-5.64,5.64,1.65,1.87,3.84,3.55,5.44,5.43,1.35,1.6,1.86,3.68.22,5.32Z"/>
      <path class="cls-1" d="M20.79,23.5c-1.01.17-2.03-.01-2.88-.59l-6.07-6.03c-2.11,1.82-4.01,3.95-6.03,5.91-3.37,2.46-7.41-1.41-5.15-4.87l6.09-6.14L.91,5.94C-1.92,2.45,2.44-1.97,6.01.97c1.98,1.63,3.73,4.02,5.72,5.7.41.07,5.03-5.07,5.89-5.77,3.51-2.83,7.89,1.57,5.03,5.03-1.66,2.02-4.11,3.83-5.84,5.84l5.91,5.91c1.78,1.88.6,5.38-1.94,5.81Z"/>
      <path class="cls-1" d="M89.01,23.5c-1.03.15-1.87-.01-2.74-.58l-6.07-6.03c-.41-.07-5.02,5.07-5.89,5.77-3.32,2.66-7.49-1-5.42-4.6l6.23-6.27-6.05-6.04c-2.54-3.31,1.75-7.69,5.31-4.76.87.71,5.33,5.63,5.72,5.7,2.11-1.82,4.01-3.95,6.03-5.91,3.66-2.51,7.66,1.79,4.76,5.31-1.63,1.97-4.01,3.74-5.71,5.7l5.77,5.77c1.82,1.99.8,5.55-1.94,5.95Z"/>
    </g>
  </g>
</svg>